<svg width="679" height="643" viewBox="0 0 679 643" fill="none" xmlns="http://www.w3.org/2000/svg">
<path d="M328.784 450.71H273.924C273.126 450.71 272.479 451.357 272.479 452.154V507.014C272.479 507.812 273.126 508.459 273.924 508.459H328.784C329.582 508.459 330.228 507.812 330.228 507.014V452.154C330.228 451.357 329.582 450.71 328.784 450.71Z" fill="#00FFC5"/>
<path d="M556.912 396.782H445.863C445.066 396.782 444.419 397.428 444.419 398.226V509.275C444.419 510.073 445.066 510.719 445.863 510.719H556.912C557.71 510.719 558.357 510.073 558.357 509.275V398.226C558.357 397.428 557.71 396.782 556.912 396.782Z" fill="#00FFC5"/>
<path d="M452.666 508.336C475.498 508.336 494.006 489.828 494.006 466.996C494.006 444.165 475.498 425.656 452.666 425.656C429.835 425.656 411.326 444.165 411.326 466.996C411.326 489.828 429.835 508.336 452.666 508.336Z" fill="white"/>
<path d="M452.666 509.413C429.274 509.413 410.243 490.382 410.243 466.989C410.243 443.596 429.274 424.566 452.666 424.566C476.059 424.566 495.09 443.596 495.09 466.989C495.09 490.382 476.059 509.413 452.666 509.413ZM452.666 426.74C430.473 426.74 412.41 444.795 412.41 466.996C412.41 489.198 430.465 507.253 452.666 507.253C474.868 507.253 492.923 489.198 492.923 466.996C492.923 444.795 474.868 426.74 452.666 426.74Z" fill="black"/>
<path d="M316.058 639.875C335.966 639.875 352.104 623.737 352.104 603.829C352.104 583.921 335.966 567.783 316.058 567.783C296.15 567.783 280.012 583.921 280.012 603.829C280.012 623.737 296.15 639.875 316.058 639.875Z" fill="black"/>
<path d="M316.058 640.958C295.583 640.958 278.929 624.304 278.929 603.829C278.929 583.354 295.583 566.699 316.058 566.699C336.533 566.699 353.188 583.354 353.188 603.829C353.188 624.304 336.533 640.958 316.058 640.958ZM316.058 568.866C296.782 568.866 281.095 584.553 281.095 603.829C281.095 623.105 296.782 638.791 316.058 638.791C335.334 638.791 351.021 623.105 351.021 603.829C351.021 584.553 335.334 568.866 316.058 568.866Z" fill="black"/>
<path d="M499.719 639.875C519.627 639.875 535.765 623.737 535.765 603.829C535.765 583.921 519.627 567.783 499.719 567.783C479.811 567.783 463.673 583.921 463.673 603.829C463.673 623.737 479.811 639.875 499.719 639.875Z" fill="black"/>
<path d="M499.719 640.958C479.244 640.958 462.59 624.304 462.59 603.829C462.59 583.354 479.244 566.699 499.719 566.699C520.194 566.699 536.849 583.354 536.849 603.829C536.849 624.304 520.194 640.958 499.719 640.958ZM499.719 568.866C480.443 568.866 464.757 584.553 464.757 603.829C464.757 623.105 480.443 638.791 499.719 638.791C518.995 638.791 534.682 623.105 534.682 603.829C534.682 584.553 518.995 568.866 499.719 568.866Z" fill="black"/>
<path d="M592.106 340.961C591.081 339.741 589.564 339.04 587.968 339.04H232.396L225.744 299.86C225.304 297.252 223.043 295.346 220.407 295.346H173.513C170.523 295.346 168.097 297.772 168.097 300.762C168.097 303.752 170.523 306.179 173.513 306.179H215.836L260.491 569.328C260.931 571.935 263.192 573.842 265.828 573.842H554.587C557.577 573.842 560.003 571.415 560.003 568.425C560.003 565.435 557.577 563.008 554.587 563.008H270.407L262.484 516.331H294.283C294.283 516.331 294.291 516.331 294.298 516.331C294.305 516.331 294.305 516.331 294.312 516.331H331.037C331.037 516.331 331.044 516.331 331.052 516.331C331.059 516.331 331.059 516.331 331.066 516.331H367.791C367.791 516.331 367.798 516.331 367.806 516.331C367.813 516.331 367.813 516.331 367.82 516.331H404.545C404.545 516.331 404.552 516.331 404.559 516.331C404.567 516.331 404.567 516.331 404.574 516.331H441.299C441.299 516.331 441.306 516.331 441.313 516.331C441.321 516.331 441.321 516.331 441.328 516.331H478.053C478.053 516.331 478.06 516.331 478.067 516.331C478.074 516.331 478.074 516.331 478.082 516.331H514.807C514.807 516.331 514.814 516.331 514.821 516.331C514.828 516.331 514.828 516.331 514.836 516.331H551.561C551.561 516.331 551.568 516.331 551.575 516.331C551.582 516.331 551.582 516.331 551.589 516.331H559.707C562.351 516.331 564.604 514.425 565.044 511.817L593.291 345.367C593.558 343.792 593.117 342.182 592.084 340.968L592.106 340.961ZM560.798 472.203H550.123L546.079 449.75H564.611L560.798 472.203ZM555.619 502.71L552.073 483.037H558.956L555.619 502.71ZM519.364 505.498L515.319 483.044H541.067L545.111 505.498H519.364ZM482.61 505.498L478.566 483.044H504.313L508.357 505.498H482.61ZM445.856 505.498L441.812 483.044H467.559L471.603 505.498H445.856ZM409.102 505.498L405.058 483.044H430.805L434.849 505.498H409.102ZM372.348 505.498L368.304 483.044H394.051L398.096 505.498H372.348ZM335.594 505.498L331.55 483.044H357.297L361.342 505.498H335.594ZM298.841 505.498L294.796 483.044H320.543L324.588 505.498H298.841ZM296.544 349.881L300.588 372.335H274.841L270.797 349.881H296.544ZM333.298 349.881L337.342 372.335H311.595L307.551 349.881H333.298ZM370.052 349.881L374.096 372.335H348.349L344.304 349.881H370.052ZM406.806 349.881L410.85 372.335H385.103L381.058 349.881H406.806ZM443.559 349.881L447.604 372.335H421.857L417.812 349.881H443.559ZM480.313 349.881L484.358 372.335H458.611L454.566 349.881H480.313ZM517.067 349.881L521.112 372.335H495.364L491.32 349.881H517.067ZM553.821 349.881L557.866 372.335H532.118L528.074 349.881H553.821ZM563.867 405.629H538.12L534.076 383.175H559.823L563.867 405.629ZM570.829 383.175H575.899L573.437 397.67L570.822 383.175H570.829ZM319.539 416.462H345.287L349.331 438.916H323.584L319.539 416.462ZM312.577 438.916H286.83L282.786 416.462H308.533L312.577 438.916ZM393.047 416.462H418.794L422.839 438.916H397.092L393.047 416.462ZM386.085 438.916H360.338L356.293 416.462H382.041L386.085 438.916ZM429.801 416.462H455.548L459.593 438.916H433.846L429.801 416.462ZM466.555 416.462H492.302L496.347 438.916H470.599L466.555 416.462ZM464.605 405.629L460.561 383.175H486.308L490.352 405.629H464.605ZM453.598 405.629H427.851L423.807 383.175H449.554L453.598 405.629ZM416.844 405.629H391.097L387.053 383.175H412.8L416.844 405.629ZM380.091 405.629H354.343L350.299 383.175H376.046L380.091 405.629ZM343.337 405.629H317.589L313.545 383.175H339.292L343.337 405.629ZM351.288 449.75L355.333 472.203H329.586L325.541 449.75H351.288ZM362.295 449.75H388.042L392.087 472.203H366.339L362.295 449.75ZM399.049 449.75H424.796L428.841 472.203H403.093L399.049 449.75ZM435.803 449.75H461.55L465.594 472.203H439.847L435.803 449.75ZM472.557 449.75H498.304L502.348 472.203H476.601L472.557 449.75ZM509.311 449.75H535.058L539.102 472.203H513.355L509.311 449.75ZM507.361 438.916L503.316 416.462H529.063L533.108 438.916H507.361ZM501.359 405.629L497.314 383.175H523.062L527.106 405.629H501.359ZM302.531 383.175L306.576 405.629H280.828L276.784 383.175H302.531ZM269.822 405.629H243.684L239.871 383.175H265.77L269.814 405.629H269.822ZM271.772 416.462L275.816 438.916H249.332L245.519 416.462H271.764H271.772ZM251.174 449.75H277.773L281.818 472.203H254.987L251.174 449.75ZM288.78 449.75H314.527L318.572 472.203H292.824L288.78 449.75ZM544.114 438.916L540.07 416.462H565.817L568.099 429.13L566.438 438.923H544.114V438.916ZM577.734 372.335H568.872L564.828 349.881H581.547L577.734 372.335ZM259.776 349.881L263.82 372.335H238.037L234.223 349.881H259.776ZM256.822 483.044H283.768L287.812 505.498H260.628L256.814 483.044H256.822Z" fill="black"/>
<path d="M316.058 618.829C324.343 618.829 331.059 612.113 331.059 603.829C331.059 595.544 324.343 588.828 316.058 588.828C307.774 588.828 301.058 595.544 301.058 603.829C301.058 612.113 307.774 618.829 316.058 618.829Z" fill="#00FFC5"/>
<path d="M501.387 618.829C509.672 618.829 516.388 612.113 516.388 603.829C516.388 595.544 509.672 588.828 501.387 588.828C493.103 588.828 486.387 595.544 486.387 603.829C486.387 612.113 493.103 618.829 501.387 618.829Z" fill="#00FFC5"/>
<path d="M187.236 76.0645C204.754 76.0645 218.956 61.863 218.956 44.3445C218.956 26.826 204.754 12.6245 187.236 12.6245C169.717 12.6245 155.516 26.826 155.516 44.3445C155.516 61.863 169.717 76.0645 187.236 76.0645Z" fill="black"/>
<path d="M321.496 76.0645C339.015 76.0645 353.216 61.863 353.216 44.3445C353.216 26.826 339.015 12.6245 321.496 12.6245C303.978 12.6245 289.776 26.826 289.776 44.3445C289.776 61.863 303.978 76.0645 321.496 76.0645Z" fill="#00FFC5"/>
<path d="M388.627 76.0572C398.726 76.0572 406.913 67.87 406.913 57.7706C406.913 47.6711 398.726 39.4839 388.627 39.4839C378.527 39.4839 370.34 47.6711 370.34 57.7706C370.34 67.87 378.527 76.0572 388.627 76.0572Z" fill="black"/>
<path d="M388.627 77.1404C377.945 77.1404 369.257 68.4521 369.257 57.7704C369.257 47.0887 377.945 38.4004 388.627 38.4004C399.309 38.4004 407.997 47.0887 407.997 57.7704C407.997 68.4521 399.309 77.1404 388.627 77.1404ZM388.627 40.5671C379.144 40.5671 371.424 48.2876 371.424 57.7704C371.424 67.2532 379.144 74.9737 388.627 74.9737C398.11 74.9737 405.83 67.2532 405.83 57.7704C405.83 48.2876 398.11 40.5671 388.627 40.5671Z" fill="black"/>
<path d="M455.757 76.064C473.276 76.064 487.477 61.8625 487.477 44.344C487.477 26.8256 473.276 12.624 455.757 12.624C438.239 12.624 424.037 26.8256 424.037 44.344C424.037 61.8625 438.239 76.064 455.757 76.064Z" fill="white"/>
<path d="M455.757 77.1404C437.673 77.1404 422.954 62.4287 422.954 44.337C422.954 26.2454 437.673 11.5337 455.757 11.5337C473.842 11.5337 488.561 26.2526 488.561 44.337C488.561 62.4215 473.849 77.1404 455.757 77.1404ZM455.757 13.7004C438.865 13.7004 425.121 27.4442 425.121 44.337C425.121 61.2298 438.865 74.9737 455.757 74.9737C472.65 74.9737 486.394 61.2298 486.394 44.337C486.394 27.4442 472.65 13.7004 455.757 13.7004Z" fill="black"/>
<path d="M524.543 76.0572C534.642 76.0572 542.829 67.87 542.829 57.7706C542.829 47.6711 534.642 39.4839 524.543 39.4839C514.443 39.4839 506.256 47.6711 506.256 57.7706C506.256 67.87 514.443 76.0572 524.543 76.0572Z" fill="#00FFC5"/>
<path d="M591.673 76.0645C609.192 76.0645 623.393 61.863 623.393 44.3445C623.393 26.826 609.192 12.6245 591.673 12.6245C574.155 12.6245 559.953 26.826 559.953 44.3445C559.953 61.863 574.155 76.0645 591.673 76.0645Z" fill="black"/>
<path d="M658.803 76.0572C668.903 76.0572 677.09 67.87 677.09 57.7706C677.09 47.6711 668.903 39.4839 658.803 39.4839C648.704 39.4839 640.517 47.6711 640.517 57.7706C640.517 67.87 648.704 76.0572 658.803 76.0572Z" fill="#00FFC5"/>
<path d="M204.821 137.706H168.97C168.172 137.706 167.525 138.353 167.525 139.15V194.011C167.525 194.808 168.172 195.455 168.97 195.455H204.821C205.619 195.455 206.265 194.808 206.265 194.011V139.15C206.265 138.353 205.619 137.706 204.821 137.706Z" fill="black"/>
<path d="M204.821 196.545H168.97C167.576 196.545 166.442 195.412 166.442 194.018V139.158C166.442 137.764 167.576 136.63 168.97 136.63H204.821C206.215 136.63 207.349 137.764 207.349 139.158V194.018C207.349 195.412 206.215 196.545 204.821 196.545ZM168.97 138.797C168.768 138.797 168.609 138.955 168.609 139.158V194.018C168.609 194.22 168.768 194.379 168.97 194.379H204.821C205.023 194.379 205.182 194.22 205.182 194.018V139.158C205.182 138.955 205.023 138.797 204.821 138.797H168.97Z" fill="black"/>
<path d="M660.688 137.706H624.837C624.039 137.706 623.393 138.353 623.393 139.15V194.011C623.393 194.808 624.039 195.455 624.837 195.455H660.688C661.486 195.455 662.133 194.808 662.133 194.011V139.15C662.133 138.353 661.486 137.706 660.688 137.706Z" fill="black"/>
<path d="M519.342 124.222H464.207C463.409 124.222 462.763 124.869 462.763 125.667V194.011C462.763 194.808 463.409 195.455 464.207 195.455H519.342C520.139 195.455 520.786 194.808 520.786 194.011V125.667C520.786 124.869 520.139 124.222 519.342 124.222Z" fill="black"/>
<path d="M519.342 196.545H464.207C462.814 196.545 461.68 195.412 461.68 194.018V125.674C461.68 124.28 462.814 123.146 464.207 123.146H519.342C520.736 123.146 521.87 124.28 521.87 125.674V194.018C521.87 195.412 520.736 196.545 519.342 196.545ZM464.207 125.313C464.005 125.313 463.846 125.472 463.846 125.674V194.018C463.846 194.22 464.005 194.379 464.207 194.379H519.342C519.544 194.379 519.703 194.22 519.703 194.018V125.674C519.703 125.472 519.544 125.313 519.342 125.313H464.207Z" fill="black"/>
<path d="M367.501 156.722H298.406C297.609 156.722 296.962 157.369 296.962 158.167V194.018C296.962 194.815 297.609 195.462 298.406 195.462H367.501C368.299 195.462 368.946 194.815 368.946 194.018V158.167C368.946 157.369 368.299 156.722 367.501 156.722Z" fill="white"/>
<path d="M367.502 196.545H298.407C297.013 196.545 295.879 195.411 295.879 194.018V158.166C295.879 156.773 297.013 155.639 298.407 155.639H367.502C368.896 155.639 370.029 156.773 370.029 158.166V194.018C370.029 195.411 368.896 196.545 367.502 196.545ZM298.407 157.805C298.204 157.805 298.046 157.964 298.046 158.166V194.018C298.046 194.22 298.204 194.379 298.407 194.379H367.502C367.704 194.379 367.863 194.22 367.863 194.018V158.166C367.863 157.964 367.704 157.805 367.502 157.805H298.407Z" fill="black"/>
<path d="M607.403 156.722H538.308C537.51 156.722 536.863 157.369 536.863 158.167V194.018C536.863 194.815 537.51 195.462 538.308 195.462H607.403C608.2 195.462 608.847 194.815 608.847 194.018V158.167C608.847 157.369 608.2 156.722 607.403 156.722Z" fill="white"/>
<path d="M607.41 196.545H538.315C536.921 196.545 535.787 195.411 535.787 194.018V158.166C535.787 156.773 536.921 155.639 538.315 155.639H607.41C608.804 155.639 609.938 156.773 609.938 158.166V194.018C609.938 195.411 608.804 196.545 607.41 196.545ZM538.315 157.805C538.113 157.805 537.954 157.964 537.954 158.166V194.018C537.954 194.22 538.113 194.379 538.315 194.379H607.41C607.612 194.379 607.771 194.22 607.771 194.018V158.166C607.771 157.964 607.612 157.805 607.41 157.805H538.315Z" fill="black"/>
<path d="M443.357 137.706H388.497C387.699 137.706 387.053 138.353 387.053 139.15V194.011C387.053 194.808 387.699 195.455 388.497 195.455H443.357C444.155 195.455 444.802 194.808 444.802 194.011V139.15C444.802 138.353 444.155 137.706 443.357 137.706Z" fill="#00FFC5"/>
<path d="M277.535 113.88H225.701C224.904 113.88 224.257 114.527 224.257 115.324V194.01C224.257 194.808 224.904 195.455 225.701 195.455H277.535C278.333 195.455 278.98 194.808 278.98 194.01V115.324C278.98 114.527 278.333 113.88 277.535 113.88Z" fill="#00FFC5"/>
<path d="M677.769 78.2598H151.189V104.007H677.769V78.2598Z" fill="white"/>
<path d="M678.853 105.083H150.106V77.1694H678.853V105.083ZM152.273 102.917H676.686V79.3361H152.273V102.917Z" fill="black"/>
<path d="M677.769 195.462H151.189V221.21H677.769V195.462Z" fill="white"/>
<path d="M678.853 222.293H150.106V194.379H678.853V222.293ZM152.273 220.126H676.686V196.546H152.273V220.126Z" fill="black"/>
<path d="M275.585 595.284L124.236 625.04C120.184 625.834 116.234 623.241 115.367 619.197L97.8604 536.517L135.791 509.361L277.621 580.298C284.439 583.707 283.067 593.818 275.592 595.284H275.585Z" fill="black"/>
<path d="M135.784 509.361L277.614 580.298C284.432 583.707 283.06 593.818 275.585 595.284" fill="black"/>
<path d="M275.585 596.368C275.079 596.368 274.624 596.007 274.523 595.494C274.408 594.909 274.79 594.338 275.375 594.223C278.95 593.522 280.568 590.742 280.886 588.373C281.204 586.004 280.388 582.898 277.13 581.266L135.3 510.329C134.766 510.062 134.549 509.412 134.817 508.878C135.084 508.343 135.734 508.127 136.268 508.394L278.098 579.33C281.623 581.093 283.558 584.762 283.031 588.662C282.504 592.569 279.658 595.588 275.787 596.346C275.715 596.36 275.65 596.368 275.578 596.368H275.585Z" fill="white"/>
<path d="M275.751 594.792L122.821 624.657C118.722 625.458 116.048 629.429 116.849 633.528C117.649 637.627 121.621 640.3 125.72 639.5L278.65 609.635C282.749 608.834 285.423 604.863 284.622 600.764C283.822 596.665 279.85 593.991 275.751 594.792Z" fill="white"/>
<path d="M124.294 640.712C120.243 640.712 116.617 637.845 115.815 633.721C114.905 629.041 117.968 624.491 122.64 623.581L275.571 593.71C280.244 592.8 284.801 595.862 285.711 600.535C286.621 605.215 283.559 609.765 278.886 610.675L125.955 640.546C125.399 640.654 124.843 640.705 124.294 640.705V640.712ZM275.773 594.772L275.983 595.833L123.052 625.704C121.355 626.037 119.889 627.012 118.921 628.442C117.953 629.879 117.606 631.605 117.939 633.302C118.271 634.999 119.246 636.465 120.676 637.433C122.106 638.401 123.832 638.748 125.536 638.415L278.467 608.544C281.97 607.858 284.266 604.449 283.58 600.947C283.248 599.249 282.273 597.783 280.843 596.815C279.406 595.848 277.687 595.501 275.983 595.833L275.773 594.772Z" fill="black"/>
<path d="M73.7241 182.751C99.4352 177.493 124.937 196.054 130.693 224.199L192.624 531.469L99.5219 550.499L37.5913 243.23C31.8352 215.085 48.013 188.002 73.7241 182.751Z" fill="white"/>
<path d="M187.378 231.117C198.773 242.284 217.063 242.099 228.23 230.704C239.398 219.308 239.212 201.018 227.817 189.851L151.015 114.588C139.619 103.421 121.329 103.606 110.162 115.001C98.9948 126.397 99.1799 144.687 110.575 155.854L187.378 231.117Z" fill="white"/>
<path d="M207.595 240.428C200.019 240.428 192.443 237.582 186.622 231.877L109.821 156.614C98.0195 145.044 97.8245 126.035 109.394 114.227C114.999 108.507 122.496 105.314 130.498 105.235C130.599 105.235 130.707 105.235 130.808 105.235C138.702 105.235 146.134 108.268 151.782 113.8L228.583 189.063C234.303 194.668 237.495 202.164 237.574 210.167C237.654 218.169 234.613 225.73 229.009 231.45L228.236 230.692L229.009 231.45C223.152 237.43 215.373 240.428 207.602 240.428H207.595ZM130.808 107.402C130.714 107.402 130.613 107.402 130.519 107.402C123.095 107.474 116.14 110.442 110.94 115.743C100.208 126.692 100.388 144.329 111.337 155.061L188.138 230.324C199.087 241.056 216.731 240.875 227.456 229.927C232.656 224.625 235.48 217.613 235.401 210.181C235.321 202.749 232.36 195.802 227.059 190.602L150.258 115.339C145.022 110.211 138.124 107.394 130.801 107.394L130.808 107.402Z" fill="black"/>
<path d="M199.21 626.297L44.965 625.835C40.8339 625.82 37.4756 622.498 37.4106 618.367L36.4355 533.86L78.9528 514.656L204.143 611.997C210.159 616.677 206.837 626.319 199.217 626.297H199.21Z" fill="black"/>
<path d="M78.9521 514.656L204.142 611.997C210.158 616.677 206.836 626.319 199.217 626.297" fill="black"/>
<path d="M199.231 627.38H199.202C198.603 627.38 198.119 626.889 198.119 626.297C198.119 625.697 198.603 625.214 199.202 625.214C199.202 625.214 199.217 625.214 199.231 625.214C202.857 625.214 204.98 622.809 205.76 620.555C206.54 618.295 206.345 615.088 203.471 612.849L78.2807 515.508C77.8113 515.14 77.7246 514.461 78.0929 513.984C78.4613 513.507 79.1401 513.428 79.6168 513.796L204.807 611.137C207.92 613.557 209.097 617.529 207.818 621.256C206.54 624.975 203.175 627.373 199.238 627.373L199.231 627.38Z" fill="white"/>
<path d="M199.527 625.824L43.7091 625.171C39.5329 625.153 36.1333 628.525 36.1158 632.701C36.0983 636.877 39.4696 640.277 43.6457 640.294L199.464 640.947C203.64 640.964 207.04 637.593 207.057 633.417C207.075 629.241 203.703 625.841 199.527 625.824Z" fill="white"/>
<path d="M199.463 642.041H199.426L43.607 641.384C41.2959 641.377 39.1292 640.467 37.5042 638.828C35.8792 637.188 34.9909 635.014 34.9981 632.703C35.0198 627.951 38.8909 624.094 43.6431 624.094H43.6792L199.499 624.751C204.265 624.773 208.129 628.666 208.108 633.433C208.086 638.185 204.215 642.041 199.463 642.041ZM43.6431 626.261C40.0825 626.261 37.1792 629.15 37.1648 632.71C37.1503 636.285 40.0464 639.203 43.6142 639.218L199.434 639.875H199.463C203.023 639.875 205.926 636.986 205.941 633.425C205.955 629.85 203.059 626.933 199.491 626.918L43.672 626.261H43.6431Z" fill="black"/>
<path d="M82.0585 182.217C108.297 182.094 129.675 205.292 129.805 234.022L130.361 547.473L35.338 547.907L34.7818 234.455C34.6518 205.725 55.8202 182.34 82.0585 182.224V182.217Z" fill="white"/>
<path d="M35.3382 548.983C34.7388 548.983 34.2549 548.499 34.2549 547.907C34.2549 547.307 34.7388 546.823 35.331 546.816L129.27 546.39L128.722 234.022C128.722 233.422 129.205 232.938 129.805 232.938C130.404 232.938 130.888 233.422 130.888 234.022L131.444 547.473C131.444 548.073 130.96 548.557 130.368 548.557L35.3454 548.99L35.3382 548.983Z" fill="black"/>
<path d="M131.387 241.374L145.131 117.665C145.21 112.125 140.74 107.597 135.2 107.611L39.6719 107.828C29.1997 107.85 21.0241 116.899 22.0569 127.321L33.3741 241.504C33.4463 242.241 34.0674 242.804 34.8113 242.804H129.95C130.737 242.804 131.38 242.169 131.394 241.381L131.387 241.374Z" fill="black"/>
<path d="M129.942 243.88H34.8109C33.5037 243.88 32.4275 242.898 32.2975 241.605L20.9803 127.422C20.4603 122.15 22.1937 116.877 25.747 112.948C29.3003 109.019 34.3703 106.759 39.6714 106.745L135.2 106.528H135.229C138.19 106.528 140.97 107.691 143.05 109.792C145.138 111.908 146.264 114.703 146.221 117.679V117.78L132.477 241.446C132.426 242.79 131.307 243.88 129.949 243.88H129.942ZM135.214 108.694H135.193L39.6642 108.911C34.977 108.918 30.4848 110.926 27.3431 114.4C24.2014 117.874 22.6631 122.547 23.1253 127.212L34.4425 241.396C34.4642 241.583 34.6159 241.721 34.8037 241.721H129.942C130.137 241.721 130.303 241.562 130.303 241.367V241.266L144.047 117.607C144.069 115.238 143.166 113.013 141.498 111.323C139.829 109.633 137.598 108.702 135.221 108.702L135.214 108.694Z" fill="black"/>
<path d="M57.4951 66.5597C58.7301 77.2269 65.8368 86.7891 76.6557 90.5808C91.7429 95.8675 108.267 87.923 113.554 72.8358C116.53 64.3353 115.316 55.3869 110.983 48.2441L57.4951 66.5597Z" fill="white"/>
<path d="M86.2545 93.3036C82.9034 93.3036 79.545 92.7402 76.295 91.5991C65.3678 87.7713 57.7556 78.2236 56.4195 66.6825L56.3184 65.8158L111.46 46.9297L111.915 47.6736C116.588 55.3869 117.563 64.6891 114.58 73.1897C111.929 80.7586 106.484 86.8469 99.2545 90.3208C95.1306 92.3069 90.7034 93.3036 86.2617 93.3036H86.2545ZM58.6872 67.2891C60.1967 77.6097 67.1517 86.0958 77.0173 89.548C84.0445 92.0108 91.6061 91.5919 98.3156 88.3636C105.025 85.1352 110.073 79.4947 112.536 72.4675C115.208 64.8552 114.457 56.5497 110.499 49.5441L58.6872 67.2891Z" fill="black"/>
<path d="M95.8096 35.9305C80.7223 30.6438 64.1979 38.5882 58.9112 53.6755C57.409 57.951 57.0118 62.3349 57.4957 66.5527L110.983 48.2371C107.625 42.6977 102.396 38.2416 95.8096 35.9305Z" fill="black"/>
<path d="M56.5782 68.0187L56.4265 66.6826C55.8993 62.1037 56.3904 57.6115 57.8926 53.3215C63.3743 37.6926 80.5415 29.4376 96.1704 34.9121C102.728 37.2087 108.318 41.7443 111.915 47.681L112.608 48.8293L56.5782 68.0187ZM86.2615 35.3887C74.7493 35.3887 63.9521 42.5748 59.9365 54.0437C58.6871 57.5971 58.1887 61.3093 58.456 65.0937L109.337 47.6665C106 42.7193 101.118 38.9421 95.4554 36.9632C92.4149 35.9015 89.3165 35.396 86.2615 35.396V35.3887Z" fill="black"/>
<path d="M57.4958 67.6433C57.0481 67.6433 56.622 67.3616 56.4703 66.9138C56.2753 66.3505 56.5786 65.7294 57.1419 65.5344L110.63 47.2188C111.193 47.0238 111.814 47.3272 112.009 47.8905C112.204 48.4538 111.901 49.0749 111.338 49.2699L57.8497 67.5855C57.7342 67.6288 57.6114 67.6433 57.4958 67.6433Z" fill="black"/>
<path d="M49.9985 245.24C55.846 260.085 72.6203 267.379 87.465 261.531C102.31 255.684 109.603 238.909 103.756 224.065L64.3455 124.015C58.498 109.171 41.7236 101.877 26.8789 107.724C12.0342 113.572 4.74051 130.346 10.588 145.191L49.9985 245.24Z" fill="white"/>
<path d="M76.8731 264.637C72.8142 264.637 68.7626 263.799 64.9276 262.131C57.5826 258.938 51.9276 253.074 48.9953 245.628L9.59089 145.578C6.65867 138.132 6.7959 129.986 9.99534 122.641C13.1876 115.296 19.052 109.641 26.4981 106.708C33.9515 103.776 42.0909 103.921 49.4359 107.113C56.7809 110.305 62.4359 116.17 65.3681 123.616L104.773 223.665C107.705 231.111 107.568 239.258 104.368 246.603C101.169 253.948 95.3115 259.603 87.8653 262.535C84.3048 263.936 80.5853 264.637 76.8731 264.637ZM37.4398 106.788C34.0526 106.788 30.622 107.409 27.2853 108.723C20.3737 111.446 14.9353 116.697 11.9742 123.507C9.01312 130.318 8.88312 137.872 11.5987 144.784L51.0031 244.833C53.7259 251.745 58.9765 257.183 65.787 260.145C72.5976 263.106 80.152 263.236 87.0637 260.52C93.9753 257.797 99.4137 252.547 102.375 245.736C105.336 238.926 105.466 231.371 102.75 224.46L63.3459 124.41C59.0415 113.483 48.5331 106.795 37.4398 106.795V106.788Z" fill="black"/>
<path d="M35.2151 57.4024C50.7671 57.4024 63.3745 44.795 63.3745 29.2429C63.3745 13.6909 50.7671 1.0835 35.2151 1.0835C19.6631 1.0835 7.05566 13.6909 7.05566 29.2429C7.05566 44.795 19.6631 57.4024 35.2151 57.4024Z" fill="black"/>
<path d="M35.2154 58.4856C19.0954 58.4856 5.97266 45.37 5.97266 29.2428C5.97266 13.1156 19.0882 0 35.2154 0C51.3427 0 64.4582 13.1156 64.4582 29.2428C64.4582 45.37 51.3427 58.4856 35.2154 58.4856ZM35.2154 2.17388C20.2871 2.17388 8.13932 14.3217 8.13932 29.25C8.13932 44.1783 20.2871 56.3261 35.2154 56.3261C50.1438 56.3261 62.2915 44.1783 62.2915 29.25C62.2915 14.3217 50.1438 2.17388 35.2154 2.17388Z" fill="black"/>
<path d="M51.2051 247.758C53.119 254.901 57.7556 261.315 64.6673 265.301L157.791 319.071C171.607 327.051 189.28 322.313 197.253 308.497C205.233 294.681 200.496 277.008 186.68 269.035L93.5562 215.266" fill="white"/>
<path d="M172.185 324.04C166.992 324.04 161.864 322.675 157.249 320.01L64.126 266.24C57.1926 262.239 52.231 255.775 50.1582 248.04C50.0065 247.462 50.346 246.87 50.9237 246.711C51.5087 246.56 52.0938 246.899 52.2526 247.477C54.1738 254.648 58.7743 260.65 65.2093 264.362L158.333 318.132C164.76 321.844 172.257 322.833 179.429 320.912C186.6 318.991 192.602 314.391 196.314 307.956C203.977 294.681 199.413 277.637 186.138 269.974L93.0149 216.205C92.4949 215.908 92.3215 215.244 92.6176 214.724C92.9137 214.204 93.5782 214.031 94.0982 214.327L187.222 268.096C201.536 276.358 206.454 294.725 198.192 309.039C194.191 315.972 187.727 320.934 179.992 323.007C177.414 323.7 174.792 324.04 172.185 324.04Z" fill="black"/>
<path d="M190.529 233.545C197.239 238.579 206.072 240.659 214.839 238.485L319.2 212.572C334.685 208.73 344.117 193.057 340.275 177.573C336.433 162.088 320.76 152.656 305.276 156.498L200.915 182.412" fill="white"/>
<path d="M207.841 240.428C201.428 240.428 195.137 238.362 189.872 234.412C189.396 234.051 189.294 233.372 189.656 232.895C190.017 232.418 190.696 232.317 191.172 232.678C197.896 237.719 206.426 239.46 214.572 237.431L318.933 211.517C326.141 209.726 332.222 205.234 336.05 198.878C339.878 192.516 341.004 185.041 339.213 177.833C337.422 170.625 332.93 164.544 326.574 160.716C320.212 156.888 312.737 155.762 305.529 157.553L201.168 183.466C200.59 183.611 199.998 183.257 199.853 182.679C199.709 182.101 200.063 181.509 200.641 181.364L305.002 155.451C312.766 153.523 320.826 154.729 327.687 158.86C334.548 162.991 339.387 169.542 341.315 177.313C343.243 185.084 342.03 193.137 337.906 199.998C333.775 206.859 327.224 211.698 319.453 213.626L215.092 239.539C212.687 240.139 210.253 240.428 207.834 240.428H207.841Z" fill="black"/>
<path d="M300.581 178.302C310.68 178.302 318.867 170.115 318.867 160.016C318.867 149.916 310.68 141.729 300.581 141.729C290.481 141.729 282.294 149.916 282.294 160.016C282.294 170.115 290.481 178.302 300.581 178.302Z" fill="black"/>
<path d="M300.581 179.386C289.899 179.386 281.211 170.697 281.211 160.016C281.211 149.334 289.899 140.646 300.581 140.646C311.263 140.646 319.951 149.334 319.951 160.016C319.951 170.697 311.263 179.386 300.581 179.386ZM300.581 142.812C291.098 142.812 283.378 150.533 283.378 160.016C283.378 169.498 291.098 177.219 300.581 177.219C310.064 177.219 317.784 169.498 317.784 160.016C317.784 150.533 310.064 142.812 300.581 142.812Z" fill="black"/>
<path d="M324.061 165.1L324.964 177.125L311.581 175.493L316.283 165.591L324.061 165.1Z" fill="white"/>
<path d="M325.686 191.057L307.009 189.829C303.189 189.576 300.3 186.283 300.553 182.462C300.805 178.642 304.099 175.753 307.919 176.006L327.022 177.255" fill="white"/>
<path d="M325.686 192.14C325.686 192.14 325.636 192.14 325.614 192.14L306.937 190.912C302.532 190.623 299.181 186.803 299.47 182.397C299.607 180.26 300.575 178.31 302.178 176.901C303.788 175.493 305.847 174.8 307.984 174.93L327.087 176.179C327.687 176.215 328.134 176.735 328.098 177.327C328.055 177.927 327.55 178.367 326.943 178.338L307.84 177.089C306.28 176.988 304.778 177.501 303.608 178.526C302.438 179.552 301.73 180.982 301.629 182.535C301.42 185.748 303.861 188.536 307.075 188.746L325.751 189.973C326.351 190.01 326.798 190.53 326.762 191.129C326.726 191.7 326.25 192.14 325.679 192.14H325.686Z" fill="black"/>
<path d="M314.318 176.41L307.875 175.955C304.055 175.702 301.166 172.409 301.419 168.588C301.671 164.768 304.965 161.879 308.785 162.132L326.003 163.266" fill="white"/>
<path d="M314.325 177.493C314.325 177.493 314.274 177.493 314.245 177.493L307.803 177.038C305.673 176.901 303.723 175.933 302.307 174.33C300.892 172.727 300.198 170.661 300.335 168.523C300.473 166.386 301.44 164.435 303.044 163.027C304.647 161.619 306.713 160.918 308.85 161.056L326.068 162.189C326.668 162.225 327.115 162.745 327.079 163.345C327.036 163.944 326.516 164.399 325.924 164.356L308.706 163.222C307.146 163.121 305.644 163.627 304.474 164.659C303.304 165.685 302.596 167.115 302.495 168.668C302.285 171.882 304.727 174.669 307.94 174.879L314.39 175.334C314.989 175.377 315.437 175.897 315.394 176.489C315.35 177.06 314.881 177.493 314.318 177.493H314.325Z" fill="black"/>
<path d="M322.869 204.736L306.135 203.631C302.315 203.378 299.426 200.085 299.678 196.264C299.931 192.444 303.225 189.555 307.045 189.807L326.148 191.057" fill="white"/>
<path d="M322.869 205.819C322.869 205.819 322.818 205.819 322.797 205.819L306.063 204.714C303.925 204.577 301.975 203.609 300.567 202.006C299.158 200.402 298.458 198.337 298.595 196.199C298.732 194.061 299.7 192.111 301.303 190.703C302.907 189.295 304.972 188.601 307.11 188.731L326.213 189.988C326.812 190.024 327.26 190.544 327.224 191.144C327.181 191.743 326.675 192.184 326.068 192.155L306.966 190.898C303.745 190.696 300.964 193.13 300.755 196.343C300.545 199.557 302.986 202.345 306.2 202.555L322.934 203.66C323.533 203.696 323.981 204.216 323.945 204.815C323.909 205.386 323.432 205.826 322.862 205.826L322.869 205.819Z" fill="black"/>
<path d="M275.391 169.441L296.465 168.574C300.286 168.415 303.514 171.391 303.673 175.211C303.832 179.032 300.856 182.26 297.036 182.419L277.904 183.206" fill="white"/>
<path d="M277.911 184.282C277.333 184.282 276.856 183.827 276.828 183.242C276.806 182.643 277.268 182.137 277.868 182.116L296.999 181.328C300.22 181.198 302.726 178.468 302.596 175.247C302.466 172.026 299.722 169.491 296.515 169.65L275.441 170.517C274.834 170.546 274.336 170.076 274.314 169.477C274.293 168.877 274.755 168.372 275.354 168.35L296.429 167.483C300.849 167.324 304.583 170.748 304.763 175.161C304.944 179.573 301.499 183.314 297.086 183.495L277.954 184.282C277.954 184.282 277.925 184.282 277.911 184.282Z" fill="black"/>
</svg>
