<?xml version="1.0" encoding="UTF-8"?> <svg xmlns="http://www.w3.org/2000/svg" version="1.2" viewBox="0 0 1600 1600" width="1600" height="1600"><title>2830_R1NUIEpPUyAwMzctMDc-ai</title><defs><clipPath id="cp1"><path d="m711.65 491.08q4.15-2.25 8.29-4.5c13.83-7.53 9.79-83.3 0.37-143.15l-8.3 4.52c9.43 59.83 13.47 135.61-0.36 143.13z"></path></clipPath><clipPath id="cp2"><path d="m731.69 358.15l8.29-4.51c12.79-6.96 40.62-62.3 40.46-64.18l-8.29 4.52c0.15 1.87-27.68 57.21-40.46 64.17z"></path></clipPath><clipPath id="cp3"><path d="m676.94 227.97l8.29-4.51q-0.37-0.14-0.73-0.26-2.7-0.95-4.59-1.31l-8.29 4.52q1.88 0.35 4.59 1.3 0.35 0.13 0.73 0.26z"></path></clipPath></defs><style> .s0 { fill: #783300 } .s1 { fill: #bd5101 } .s2 { fill: #7c7e80 } .s3 { fill: #606164 } .s4 { fill: #dbf1fc } .s5 { fill: #8d3725 } .s6 { fill: #34b1d9 } .s7 { fill: #fefefe } .s8 { fill: #8b3624 } .s9 { fill: #84a2b1 } .s10 { fill: #d3e8f3 } .s11 { fill: #8ad6f7 } .s12 { fill: #01bdf1 } .s13 { fill: #1dace0 } .s14 { fill: #39b1e2 } .s15 { fill: #15aae0 } .s16 { fill: #24ade1 } .s17 { fill: #41b3e3 } .s18 { fill: #1482a2 } .s19 { fill: #1d8bb3 } .s20 { fill: #0084ae } .s21 { fill: #0c7295 } .s22 { fill: #0b6c8d } .s23 { fill: #0aa0d2 } .s24 { fill: #106280 } .s25 { opacity: .3;mix-blend-mode: multiply;fill: #231f20 } .s26 { fill: #f69b7f } .s27 { fill: #005ba7 } .s28 { fill: #0c67b2 } .s29 { fill: #886f53 } .s30 { fill: #594934 } .s31 { fill: #957d62 } .s32 { fill: #005fad } .s33 { fill: #093561 } .s34 { fill: #000941 } .s35 { fill: #104c81 } </style><g id="_Artboards_"> </g><g id="Capa 1"><g id="&lt;Group&gt;"><g id="&lt;Group&gt;"><g id="&lt;Group&gt;"><g id="&lt;Group&gt;"><g id="&lt;Group&gt;"><g id="&lt;Group&gt;"><path id="&lt;Path&gt;" class="s0" d="m19.3 1250.8h51v0.1l436.4-237.4c29-15.7 79.3-24.8 111.9-20.2l837.7 119.2v-18.1h53.3v37.8c0.1 6.4-6.4 13.9-19.8 21.2l-467.6 254.3c-28.9 15.7-79.2 24.8-111.8 20.2l-864.6-123c-17-2.4-25.9-8.2-26.4-15.3h-0.1z"></path><g id="&lt;Group&gt;"><path id="&lt;Path&gt;" class="s1" d="m44.8 1267c-32.6-4.6-35.6-21.3-6.7-37l467.6-254.4c29-15.7 79.3-24.8 111.9-20.1l864.5 123c32.6 4.6 35.6 21.2 6.7 37l-467.6 254.3c-28.9 15.8-79.2 24.8-111.8 20.2z"></path></g><g id="&lt;Group&gt;"><g id="&lt;Group&gt;"><path id="&lt;Path&gt;" class="s1" d="m594.9 243.2q-2.8 0.1-5.4 0.5-0.5 0.1-1 0.2-2.4 0.5-4.7 1.2-0.4 0.2-0.8 0.3-2.7 1-5.2 2.3 13.6-7.4 27.3-14.8 0.6-0.4 1.3-0.7 1.9-0.9 3.9-1.6 0.4-0.2 0.8-0.3c0.8-0.3 1.6-0.6 2.5-0.8 0.7-0.2 1.5-0.3 2.2-0.4q0.5-0.1 0.9-0.2 2.7-0.5 5.4-0.5 0.6 0 1.2 0c1.9 0 3.9 0 5.9 0.3l871.3 122.6c2.1 0.3 4.1 0.7 6 1.3q0.8 0.2 1.6 0.5 2.6 0.8 5.2 2 0.2 0 0.4 0.1 0.1 0.1 0.1 0.1 0.6 0.3 1.2 0.6 1.4 0.7 2.8 1.5c0.5 0.3 1 0.6 1.4 0.9 0.6 0.4 1.3 0.8 1.9 1.2q0.2 0.1 0.3 0.3 2.6 1.7 4.9 3.8 0.1 0.1 0.2 0.2c0.3 0.2 0.5 0.5 0.8 0.7q1.6 1.6 3.2 3.3c0.2 0.3 0.5 0.5 0.7 0.7 0.2 0.2 0.3 0.4 0.5 0.6q1.7 2 3.2 4.1c0.1 0.2 0.3 0.3 0.4 0.5q0 0.1 0.1 0.1 1.7 2.6 3.3 5.4c0.1 0.1 0.2 0.3 0.3 0.5 0.1 0.2 0.2 0.5 0.3 0.7 1.2 2.2 2.2 4.5 3.1 6.8q0 0.1 0 0.2c0.3 0.8 0.6 1.6 0.8 2.5 0.3 0.6 0.5 1.3 0.7 1.9 0.2 0.9 0.4 1.9 0.6 2.8 0.2 0.6 0.4 1.3 0.5 2 0.2 1 0.3 2 0.4 3 0.1 0.6 0.2 1.3 0.3 1.9q0.2 2.5 0.2 5l1.1 603.6c0.1 17.3-8.4 31.4-21.1 38.3l-27.2 14.9c12.7-7 21.1-21.1 21.1-38.4l-1.1-603.6q-0.1-2.5-0.3-4.9c-0.1-0.7-0.2-1.3-0.3-1.9-0.1-1-0.2-2-0.4-3-0.1-0.7-0.3-1.4-0.4-2.1-0.2-0.9-0.4-1.8-0.7-2.7-0.2-0.7-0.4-1.3-0.6-2-0.3-0.9-0.6-1.8-0.9-2.6-0.8-2.4-1.9-4.6-3-6.9q-0.4-0.6-0.7-1.2c-1-1.8-2.1-3.6-3.3-5.3q-0.2-0.4-0.5-0.7-1.5-2.1-3.2-4-0.6-0.7-1.1-1.3-1.6-1.8-3.3-3.4c-0.4-0.3-0.7-0.6-1-0.9q-2.3-2-4.8-3.8c-0.3-0.2-0.7-0.4-1-0.7-2.2-1.4-4.4-2.7-6.7-3.8q-0.2-0.1-0.5-0.2-2.6-1.2-5.2-2-0.8-0.3-1.5-0.5c-2-0.5-4-1-6-1.3l-871.4-122.6c-2-0.2-3.9-0.3-5.9-0.3q-0.5 0-1.1 0z"></path><g id="&lt;Group&gt;"><path id="&lt;Path&gt;" class="s0" d="m601.9 243.5c-24.9-3.5-45.2 15.7-45.2 42.5l1.1 603.7c0.1 26.8 20.5 51.7 45.4 55.2l871.4 122.5c24.9 3.5 45.2-15.6 45.2-42.5l-1.1-603.6c-0.1-26.9-20.5-51.7-45.4-55.2z"></path></g></g></g><g id="&lt;Group&gt;"><g id="&lt;Group&gt;"><path id="&lt;Path&gt;" class="s2" d="m1303.3 1049.1q0-0.2 0-0.4 0-0.4 0.1-0.9 0-0.5 0.1-1 0-0.1 0-0.1 0-0.1 0.1-0.2 0.1-0.5 0.2-1.1c0-0.1 0.1-0.3 0.2-0.5q0.2-0.7 0.5-1.4 0.2-0.5 0.4-1 0.3-0.7 0.7-1.3c0.2-0.2 0.3-0.5 0.4-0.7q0.2-0.2 0.4-0.4 0.1-0.1 0.2-0.3 0.1-0.1 0.2-0.3 0.3-0.4 0.7-0.7 0.3-0.3 0.6-0.6 0 0 0 0 0.3-0.3 0.6-0.5 0.3-0.2 0.6-0.4 0.3-0.2 0.5-0.3 0.2-0.1 0.3-0.2 0.2-0.1 0.3-0.2 0.3-0.1 0.6-0.2 0.3-0.2 0.6-0.3 0 0 0.1 0 0 0 0 0 0.2-0.1 0.4-0.2 0.3-0.1 0.6-0.1 0.3-0.1 0.6-0.2 0 0.1 0 0 0.4 0 0.7-0.1 0.3 0 0.7 0 0.1 0 0.2 0 0 0 0.1 0 0.2 0 0.4 0 0.5 0 0.9 0.1 0.1 0 0.2 0l125.8 21.1q-0.7-0.1-1.5-0.1-0.1 0-0.1 0-0.8 0-1.6 0.1 0 0 0 0-0.8 0.2-1.5 0.4-0.1 0.1-0.1 0.1-0.8 0.3-1.6 0.7-1 0.6-2 1.3 0 0.1 0 0.1-0.8 0.7-1.5 1.6-0.1 0.1-0.2 0.3c-0.3 0.3-0.5 0.7-0.7 1q-0.5 0.7-0.8 1.3-0.2 0.5-0.4 1.1-0.3 0.7-0.5 1.4c-0.2 0.5-0.3 1-0.4 1.6q-0.1 0.1-0.1 0.2-0.2 1.1-0.2 2.3 0 0.1 0 0.2 0 1.2 0.2 2.4 0 0 0.1 0 0.2 1.3 0.6 2.5 0.3 0.8 0.6 1.4 0.1 0 0.1 0.1 0.3 0.6 0.7 1.2 0 0 0.1 0.1 0.3 0.5 0.7 1 0.2 0.2 0.3 0.3 0.3 0.3 0.6 0.6 0.3 0.3 0.7 0.5 0.2 0.2 0.4 0.4 0.4 0.2 0.8 0.5 0.2 0.1 0.5 0.2 0.4 0.2 0.9 0.4c0.1 0 0.3 0.1 0.4 0.2q0.7 0.2 1.4 0.3l-125.8-21.1q-0.7-0.1-1.4-0.3-0.2-0.1-0.4-0.2-0.5-0.1-0.9-0.3-0.3-0.2-0.5-0.3-0.4-0.2-0.8-0.5-0.2-0.2-0.4-0.3-0.4-0.3-0.7-0.6-0.1-0.1-0.2-0.2-0.2-0.2-0.4-0.3-0.1-0.2-0.3-0.4-0.1-0.1-0.1-0.2-0.3-0.3-0.6-0.7 0-0.1 0-0.1-0.1 0-0.1-0.1-0.2-0.2-0.4-0.5-0.2-0.3-0.3-0.7 0 0 0 0-0.1 0-0.1-0.1-0.1-0.2-0.2-0.5-0.2-0.3-0.3-0.7-0.1-0.1-0.1-0.2-0.1-0.2-0.1-0.4-0.2-0.3-0.3-0.7 0-0.3-0.1-0.6-0.1-0.4-0.1-0.7 0 0-0.1 0 0 0 0-0.1 0-0.3-0.1-0.6 0-0.3 0-0.7-0.1-0.4-0.1-0.8 0-0.1 0-0.3 0-0.1 0-0.1z"></path><g id="&lt;Group&gt;"><path id="&lt;Path&gt;" class="s3" d="m1435.9 1057.9c-5.7 3.1-8.3 10.9-5.9 17.3 2.4 6.5 8.9 9.2 14.6 6 5.6-3.1 8.3-10.9 5.9-17.3-2.4-6.5-8.9-9.2-14.6-6z"></path></g></g></g><g id="&lt;Group&gt;"><g id="&lt;Group&gt;"><path id="&lt;Path&gt;" class="s2" d="m632.8 953.4q0-0.2 0-0.4 0-0.4 0-0.8 0.1-0.6 0.2-1.1 0 0 0-0.1 0-0.1 0-0.2 0.1-0.5 0.2-1c0.1-0.2 0.2-0.4 0.2-0.6q0.2-0.7 0.5-1.4 0.2-0.5 0.5-1 0.3-0.7 0.7-1.3c0.1-0.2 0.2-0.5 0.4-0.7q0.1-0.2 0.3-0.4 0.1-0.1 0.2-0.3 0.1-0.1 0.3-0.3 0.3-0.4 0.6-0.7 0.3-0.3 0.7-0.6 0 0 0 0 0.3-0.2 0.6-0.5 0.2-0.2 0.5-0.4 0.3-0.2 0.6-0.3 0.1-0.1 0.3-0.2 0.1-0.1 0.3-0.1 0.3-0.2 0.5-0.3 0.3-0.1 0.6-0.2 0.1-0.1 0.1-0.1 0.1 0 0.1 0 0.2-0.1 0.4-0.1 0.3-0.1 0.6-0.2 0.3-0.1 0.6-0.1 0 0 0 0 0 0 0 0 0.3-0.1 0.6-0.1 0.4-0.1 0.7-0.1 0.1 0 0.2 0 0.1 0 0.2 0 0.2 0 0.4 0 0.4 0 0.9 0.1 0.1 0 0.2 0l125.8 21.1q-0.8-0.1-1.5-0.1-0.1 0-0.2 0-0.7 0-1.5 0.1 0 0 0 0-0.8 0.2-1.6 0.5 0 0-0.1 0-0.8 0.3-1.5 0.7-1.1 0.6-2 1.4 0 0 0 0-0.9 0.7-1.6 1.6-0.1 0.1-0.2 0.3-0.4 0.5-0.7 1-0.4 0.7-0.7 1.4-0.3 0.5-0.5 1-0.3 0.7-0.5 1.4c-0.1 0.5-0.3 1.1-0.4 1.6q0 0.1 0 0.2-0.2 1.2-0.2 2.4 0 0 0 0.1 0 1.2 0.2 2.4 0 0.1 0 0.1 0.2 1.2 0.7 2.4 0.3 0.8 0.6 1.4 0 0.1 0 0.1 0.4 0.6 0.7 1.2 0.1 0.1 0.1 0.1 0.4 0.5 0.8 1 0.1 0.2 0.3 0.3 0.3 0.3 0.5 0.6 0.4 0.3 0.7 0.5 0.3 0.2 0.5 0.4 0.4 0.2 0.8 0.5 0.2 0.1 0.5 0.2 0.4 0.2 0.8 0.4 0.3 0.1 0.5 0.2 0.7 0.2 1.4 0.3l-125.8-21.1q-0.8-0.1-1.4-0.3-0.2-0.1-0.5-0.2-0.4-0.1-0.8-0.3-0.3-0.2-0.5-0.3-0.4-0.2-0.8-0.5-0.3-0.1-0.5-0.3-0.3-0.3-0.7-0.6-0.1-0.1-0.2-0.2-0.1-0.2-0.3-0.3-0.2-0.2-0.3-0.4-0.1-0.1-0.2-0.2-0.3-0.3-0.5-0.7-0.1 0-0.1-0.1 0 0 0-0.1-0.2-0.2-0.4-0.5-0.2-0.3-0.4-0.7 0 0 0 0 0 0 0 0-0.2-0.3-0.3-0.6-0.1-0.3-0.3-0.7 0-0.1 0-0.2-0.1-0.2-0.2-0.4-0.1-0.3-0.2-0.7-0.1-0.3-0.2-0.6 0-0.4-0.1-0.7 0 0 0 0 0 0 0 0-0.1-0.4-0.1-0.7 0-0.3-0.1-0.7 0-0.4 0-0.7 0-0.2 0-0.4 0 0 0-0.1z"></path><g id="&lt;Group&gt;"><path id="&lt;Path&gt;" class="s3" d="m765.4 962.2c-5.7 3.1-8.3 10.9-5.9 17.3 2.4 6.5 8.9 9.2 14.5 6 5.7-3.1 8.3-10.9 6-17.3-2.5-6.5-9-9.1-14.6-6z"></path></g></g></g><path id="&lt;Path&gt;" class="s4" d="m588.6 883.1l-1.1-586.8c0-7.5 2.4-14.1 6.9-18.6 3.7-3.7 8.5-5.7 13.9-5.7q1.6 0 3.3 0.2l847.2 119.2c15.7 2.2 29.1 18.9 29.1 36.4l1.1 586.9c0 7.5-2.5 14.1-7 18.6-3.7 3.7-8.5 5.7-13.8 5.7q-1.6 0-3.3-0.3l-847.2-119.1c-15.5-2.2-29.1-19.2-29.1-36.5z"></path><g id="&lt;Group&gt;"><g id="&lt;Group&gt;"><path id="&lt;Path&gt;" class="s5" d="m1378.8 497v0.1q0.1 0 0.2 0z"></path></g><g id="&lt;Group&gt;"><g id="&lt;Group&gt;"><path id="&lt;Compound Path&gt;" fill-rule="evenodd" class="s6" d="m1269 461.8c3.5-12.9 46-13.6 88.4-7.6 42.4 5.9 84.9 18.6 88.5 32.5 1.1 3.6 2 10.7 2.6 20 3.5 45.4 2.5 144.3-6.4 158.7-3.9 6.5-44.1 4.4-84.3-1.3-40.2-5.6-80.5-14.8-84.4-22.4-8.9-16.9-10.3-116.2-7-160.6 0.7-9.1 1.5-15.9 2.6-19.3zm40.3 87.3c0.9 0.1 2.3-0.2 4.1-1 1.4-0.6 3.1-1.4 4.9-2.4-2.6 18.5-4.7 41-4.7 55.2 0.1 7.2 0.7 12.3 2 13.6 3.7 3.7 24.4 7.5 44.1 10.3 18.6 2.6 36.2 4.3 37 4 1.2-0.3 2.1-1.6 3-3.9 0.5-1.3 0.8-3 1.1-5 2.1-13.6 0.1-40.4-3.4-62.7q2.3 1.8 4.1 3.1c2 1.4 3.5 2.2 4.5 2.4 5.6 0 21.5-31.4 21.4-32.3-0.1-1.5-1.7-3.5-4.2-5.9-6.7-6.2-19.9-15-30.8-21q-1.4-0.8-2.7-1.5c-3.8-2-7.2-3.6-9.8-4.5-0.3-0.2-0.6-0.3-1.1-0.4q-0.9-0.3-1.5-0.5 0 2.1-0.5 4c-1.2 5.2-4.5 9.2-8.9 11.3-3.1 1.5-6.7 2.1-10.2 1.6-2.9-0.4-5.7-1.5-8.2-3.4-5.5-4.2-9.9-11.7-11.3-18.9-0.4-0.1-0.8-0.1-1.5-0.1q-0.4 0-0.9 0c-9.7 0.5-35.6 8.9-44.8 15.5-2.1 1.5-3.3 2.9-3.4 4.1 0 1 15.9 36.8 21.7 38.4z"></path></g><path id="&lt;Compound Path&gt;" fill-rule="evenodd" class="s7" d="m1291 506.6q0.2-0.1 0.5-0.3-0.2 0.1-0.4 0.2 0.4-0.2 0.8-0.5 0 0 0 0c9.8-6.5 34.5-14.4 43.9-14.9q0.5 0 0.9 0h0.2q0 0 0 0 0.7 0 1.3 0c1.4 7.3 5.8 14.8 11.3 19 2.5 1.9 5.3 3 8.2 3.4 3.5 0.5 7.1-0.1 10.2-1.6 4.4-2.1 7.7-6.1 8.9-11.3q0.5-1.9 0.5-4 0.6 0.2 1.5 0.5 0.1 0 0.2 0 0.5 0.2 0.9 0.4c1.1 0.4 2.4 0.9 3.9 1.6q0.6 0.3 1.3 0.6 2.2 1 4.6 2.3 1.3 0.7 2.7 1.5c10.9 6 24.1 14.8 30.8 21 2.5 2.4 4.1 4.4 4.2 5.9 0.1 0.9-15.8 32.3-21.4 32.3q-0.1 0-0.2 0c-0.8-0.2-2.3-1-4.3-2.4q-1.8-1.3-4.1-3.1c3.5 22.3 5.5 49.1 3.4 62.7q0 0 0.1 0c-0.4 2-0.7 3.7-1.3 5.3-0.8 2-1.7 3.3-2.9 3.6-0.8 0.3-18.4-1.4-37-4-19.7-2.8-40.4-6.6-44.1-10.3-1.3-1.3-1.9-6.4-2-13.6 0-14.2 2.1-36.7 4.7-55.2-1.8 1-3.5 1.8-4.6 2.3q-0.2 0-0.3 0.1c-1.8 0.8-3.2 1.1-4.1 1q-0.1 0-0.1 0c-5.7-1.6-21.6-37.4-21.6-38.4 0.1-1.2 1.3-2.6 3.4-4.1zm0 0q0 0 0.1-0.1-0.1 0.1-0.1 0.1zm76.2 8.7c5.4-1.5 10.1-6.1 11.9-12-1.8 5.9-6.5 10.5-11.9 12zm-67.8 7.3q-0.4-1-0.9-1.9 0.2 0.5 0.4 0.9 0.3 0.5 0.5 1zm-0.9-2q0 0.1 0 0.1 0 0 0-0.1zm-0.7-1.3q-0.2-0.5-0.4-1 0 0.2 0.1 0.4 0.2 0.3 0.3 0.6zm-2.1-4.6q-0.9-1.8-1.6-3.5 0.7 1.6 1.5 3.3 0 0.1 0.1 0.2zm-2.2-4.8q0.3 0.7 0.6 1.3-0.3-0.6-0.6-1.3zm2.2 4.9q0-0.1 0-0.1 0 0 0 0.1zm9.9 20q-0.1-0.2-0.2-0.4 0.1 0.2 0.2 0.4zm3 5.2q-0.2-0.3-0.4-0.6 0.2 0.3 0.4 0.6zm2.7 4.5q-0.1-0.2-0.3-0.5 0.2 0.3 0.3 0.5z"></path></g><g id="&lt;Group&gt;"><path id="&lt;Compound Path&gt;" fill-rule="evenodd" class="s6" d="m1269.5 761.4c3.6-12.9 46-13.6 88.5-7.7 42.4 6 84.8 18.6 88.4 32.5 1.1 3.6 2 10.7 2.7 20 3.5 45.4 2.4 144.3-6.4 158.8-3.9 6.5-44.1 4.4-84.4-1.3-40.2-5.6-80.4-14.8-84.3-22.4-8.9-17-10.3-116.3-7.1-160.7 0.7-9.1 1.6-15.9 2.6-19.2zm34.4 104c9.4 10.3 15.9 17.9 24.3 27.3 8.4 9.5 20.2 18.7 31.6 24q2.1 1 4.2 1.8c5.5 2.1 12.1 4.1 18.5 5q0.4 0.1 0.8 0.1c9.3 1.2 20.1 1.8 26.7-4.2q0.9-0.7 1.6-1.9 0.1-0.2 0.2-0.3c0.9-1.6 1.6-3.5 1.8-5.1 1.5-9.6-4.2-19.8-11.8-25.9-2.9-2.3-6.2-4-9.6-5.3-1.9-1.5-4.8-3.8-7.8-6.3 0.2-0.4 0.2-1-0.4-1.4q-1.6-0.9-3.3-1.6c-2.5-2.1-4.9-4.2-6.7-5.8 0.3-0.4 0.3-1.2-0.3-1.6q-1.5-1.3-3.2-2.2c-1.6-2.1-2.8-4.1-3.8-6 0.4-0.3 0.6-1 0.2-1.5q-0.7-0.8-1.4-1.5c-0.9-2.5-1.4-4.9-1.3-7.4 0.7 0.1 1.3-0.8 0.7-1.6q-0.5-0.9-1.1-1.5c-0.1-3.2 0.1-6.5 0.4-10.2q0.3 0.4 0.6 0.4c0.7 0.1 1.4-0.8 0.7-1.7q-0.5-0.6-1.1-1.2c0.9-9.5 3.3-23.3-6-29.6-3.4-2.3-10.2-4.3-16.3-5.1-3.7-0.6-7.2-0.7-9.6-0.2-1.6 0.3-4.7 0.2-7.8-0.1q-1.9-0.4-3.9-0.7c-0.1 0-0.2 0-0.3-0.1-4-0.5-7.8-0.3-10.2 0.9l-1 2.5c-1.8 3.6-1.3 7.3-1.5 11.3-0.2 5.4-1.5 10.4-2 15.9-0.3 2.2-0.7 5-1.1 8.2-1 7.4-2 16.6-2.1 23.4-0.1 4.6 0.2 8.1 1.3 9.2z"></path></g><g id="&lt;Group&gt;"><path id="&lt;Path&gt;" class="s8" d="m1338.2 821.7c-1.6-0.2-3.3 1.1-1.6 2.9 0.4 0.4 1 0.7 1.5 0.7 1.2 0.2 2.3-0.3 2.1-1.5q-0.7 0.1-1.3 0.3-0.2 0.1-0.3 0c-0.9-0.1-1.2-1.7-0.2-2q0.2-0.1 0.4-0.2-0.3-0.1-0.6-0.2z"></path></g><g id="&lt;Group&gt;"><path id="&lt;Path&gt;" class="s7" d="m1302.9 849.4q-0.1 1-0.1 1.9 0-0.9 0.1-1.9z"></path><path id="&lt;Path&gt;" class="s7" d="m1303.4 843.9q-0.1 1-0.2 2 0.1-1 0.2-2z"></path><path id="&lt;Path&gt;" class="s7" d="m1302.8 851.4q0.1-1 0.1-2 0.1-1.7 0.3-3.4 0.1-1.1 0.2-2.1 0.2-2.1 0.4-4.2 0.1-0.5 0.2-1-0.1 0.5-0.2 1c0.3-2.4 0.6-4.7 0.9-6.9 0.4-3.2 0.8-6 1.1-8.2 0.5-5.5 1.8-10.5 2-15.9 0.2-4-0.3-7.7 1.5-11.3l1-2.5c2.4-1.2 6.2-1.4 10.2-0.8q0.2 0 0.3 0 2 0.3 3.9 0.7c3.1 0.3 6.2 0.4 7.8 0.1 2.4-0.5 5.9-0.4 9.6 0.2 6.1 0.8 12.9 2.8 16.3 5.1 9.3 6.3 6.9 20.1 6 29.6q0.6 0.6 1.1 1.2c0.7 0.9 0 1.8-0.7 1.7-0.2 0-0.4-0.1-0.6-0.4-0.6-0.8-1.3-1.4-2-2.1 0.7 0.7 1.4 1.3 2 2.1-0.3 3.7-0.5 7-0.4 10.2q0.6 0.6 1.1 1.5c0.6 0.8 0 1.7-0.7 1.6q-0.1 0-0.3-0.1c0.2 2.6 0.7 5 1.6 7.5q0.7 0.7 1.4 1.5c0.4 0.5 0.2 1.2-0.2 1.5 1 1.9 2.2 3.9 3.8 6-1.7-0.8-3.5-1.3-5.3-1.6 1.8 0.3 3.6 0.8 5.3 1.6q1.7 0.9 3.2 2.2c0.6 0.4 0.6 1.2 0.3 1.6 1.8 1.6 4.2 3.7 6.7 5.8q1.7 0.7 3.3 1.6c0.6 0.4 0.6 1 0.4 1.4 3 2.5 5.9 4.8 7.8 6.3 3.4 1.3 6.7 3 9.6 5.3 7.6 6.1 13.3 16.3 11.8 25.9-0.2 0.9-0.4 1.9-0.8 2.8q0 0 0 0-0.4 1.2-1 2.3-0.1 0.1-0.2 0.4c-0.5 0.7-1 1.4-1.6 1.8-6.6 6-17.4 5.4-26.7 4.2q-0.4 0-0.8-0.1c-6.4-0.9-13-2.9-18.6-5-1.7-0.7-3.4-1.5-5.2-2.4 0.3 0.2 0.7 0.5 1.1 0.6-0.7-0.3-1.3-0.6-1.9-0.9q-0.3-0.2-0.6-0.3c-10.6-5.5-21.3-14-29.1-22.8-8.4-9.4-15-17-24.3-27.3-1.1-1.1-1.4-4.6-1.3-9.2q0-0.2 0-0.5 0-2 0.2-4.3z"></path><path id="&lt;Path&gt;" class="s7" d="m1303.4 843.9q0 0 0 0 0.2-2.1 0.4-4.2 0 0 0 0-0.2 2.1-0.4 4.2z"></path><path id="&lt;Path&gt;" class="s7" d="m1302.9 849.4q0 0 0 0 0.1-1.7 0.3-3.5 0 0.1 0 0.1-0.1 1.7-0.3 3.4z"></path><path id="&lt;Path&gt;" class="s7" d="m1302.6 855.7c0 0.2 0 0.4 0 0.5 0-1.5 0.1-3.1 0.2-4.9q0 0.1 0 0.1-0.2 2.3-0.2 4.3z"></path></g><g id="&lt;Group&gt;"><path id="&lt;Path&gt;" class="s9" d="m1072 585.3c-76-10.7-152-20.5-154.8-19.3q-1.2 0.5-2 2.1c-2.6 5.2-1.5 17.4 5.2 20.3 3 1.3 77.3 12.2 151.7 22.6 74.3 10.5 148.6 20.5 151.6 20 6.8-0.9 7.7-12.9 5.1-18.8-0.5-1.2-1.2-2.1-2-2.7-2.7-2-78.8-13.5-154.8-24.2z"></path></g><g id="&lt;Group&gt;"><g id="&lt;Group&gt;"><path id="&lt;Path&gt;" class="s9" d="m930.3 512.6c-144.1-20.2-288.2-39.7-293.4-38.7-1.5 0.2-2.8 0.9-3.8 1.8-4.8 4.8-3 17.2 9.8 20.9 5.6 1.7 146.6 21.9 287.5 41.7 140.9 19.8 281.8 39.2 287.4 39.1 12.8-0.1 14.6-12 9.8-18.1-1.1-1.3-2.3-2.3-3.9-3-5.2-2.3-149.3-23.4-293.4-43.7z"></path></g><g id="&lt;Group&gt;"><path id="&lt;Path&gt;" class="s9" d="m930.2 459.9c-144.1-20.3-288.2-39.7-293.4-38.8-1.5 0.2-2.8 0.9-3.8 1.9-4.8 4.8-2.9 17.2 9.8 20.9 5.6 1.7 146.6 21.9 287.5 41.7 140.9 19.8 281.8 39.2 287.4 39.1 12.8-0.1 14.6-12 9.8-18.2-1.1-1.3-2.3-2.3-3.9-2.9-5.2-2.4-149.3-23.5-293.4-43.7z"></path></g><g id="&lt;Group&gt;"><path id="&lt;Path&gt;" class="s9" d="m930.1 407.1c-144.1-20.2-288.2-39.6-293.4-38.7-1.5 0.2-2.8 0.8-3.7 1.8-4.9 4.8-3.1 17.2 9.7 21 5.6 1.6 146.6 21.8 287.5 41.6 140.9 19.9 281.8 39.2 287.4 39.2 12.8-0.2 14.6-12 9.8-18.2-1.1-1.3-2.4-2.3-3.9-3-5.2-2.3-149.3-23.4-293.4-43.7z"></path></g></g><g id="&lt;Group&gt;"><path id="&lt;Path&gt;" class="s9" d="m930.9 812.2c-144.1-20.3-288.2-39.7-293.4-38.8-1.5 0.2-2.8 0.9-3.8 1.9-4.8 4.8-3 17.2 9.8 20.9 5.6 1.6 146.5 21.9 287.5 41.7 140.9 19.8 281.8 39.2 287.4 39.1 12.8-0.1 14.6-12 9.7-18.2-1-1.3-2.3-2.3-3.8-2.9-5.2-2.4-149.3-23.5-293.4-43.7z"></path></g><g id="&lt;Group&gt;"><path id="&lt;Path&gt;" class="s9" d="m930.8 759.4c-144.1-20.2-288.2-39.6-293.4-38.7-1.5 0.2-2.8 0.8-3.8 1.8-4.8 4.8-3 17.2 9.8 21 5.6 1.6 146.5 21.8 287.5 41.7 140.9 19.8 281.8 39.1 287.4 39.1 12.8-0.2 14.6-12 9.7-18.2-1-1.3-2.3-2.3-3.8-3-5.2-2.3-149.3-23.4-293.4-43.7z"></path></g><g id="&lt;Group&gt;"><path id="&lt;Path&gt;" class="s9" d="m930.7 706.7c-144.1-20.3-288.2-39.7-293.4-38.8-1.5 0.2-2.8 0.9-3.8 1.9-4.8 4.8-3 17.2 9.8 20.9 5.6 1.6 146.5 21.9 287.5 41.7 140.9 19.8 281.8 39.2 287.4 39.1 12.8-0.1 14.6-12 9.7-18.2-1-1.3-2.3-2.3-3.8-2.9-5.2-2.4-149.3-23.5-293.4-43.7z"></path></g><g id="&lt;Group&gt;"><path id="&lt;Path&gt;" class="s9" d="m1072.6 884.8c-76.1-10.6-152.1-20.5-154.8-19.3-0.8 0.3-1.5 1.1-2 2.2-2.6 5.1-1.6 17.4 5.1 20.2 3 1.3 77.4 12.2 151.7 22.6 74.4 10.5 148.7 20.5 151.6 20.1 6.8-1 7.7-13 5.2-18.9-0.6-1.1-1.2-2.1-2-2.7-2.8-2-78.8-13.5-154.8-24.2z"></path></g></g></g><g id="&lt;Group&gt;"><path id="&lt;Path&gt;" class="s10" d="m379 1272.3c-11.7-1.7-12.8-7.6-2.4-13.2l85.1-47.4c10.4-5.6 28.4-8.9 40-7.2l309.3 44c11.6 1.6 12.7 7.6 2.4 13.2l-85.2 47.4c-10.3 5.6-28.3 8.8-40 7.2z"></path></g><g id="&lt;Group&gt;" style="mix-blend-mode: soft-light"><g id="&lt;Group&gt;"><path id="&lt;Path&gt;" class="s7" d="m1176.7 351.7l311.9 458.2 0.1 45.1-345.8-508z"></path></g><g id="&lt;Group&gt;"><path id="&lt;Path&gt;" class="s7" d="m1103.6 341.4l385.2 566 0.1 83.8-448.2-658.6z"></path></g><g id="&lt;Group&gt;"><path id="&lt;Path&gt;" class="s7" d="m1402 383.4l86 126.4 0.2 101.4-162.3-238.5z"></path></g><g id="&lt;Group&gt;"><path id="&lt;Path&gt;" class="s7" d="m911 314.4l486.6 714.9-105.5-14.9-486.6-714.9z"></path></g><g id="&lt;Group&gt;"><path id="&lt;Path&gt;" class="s7" d="m689.6 929.7l-101.2-148.7-0.1-79.1 160.6 236.1z"></path></g><g id="&lt;Group&gt;"><path id="&lt;Path&gt;" class="s7" d="m762 293.4h0.1l486.5 714.9-96-13.5-486.5-714.9z"></path></g><g id="&lt;Group&gt;"><path id="&lt;Path&gt;" class="s7" d="m1022.8 976.6l-183.7-25.9-251-368.8-0.5-244.8z"></path></g></g><g id="&lt;Group&gt;"><g id="&lt;Group&gt;"><path id="&lt;Path&gt;" class="s10" d="m1299 1093.9c4-2.3 11-3.6 15.6-3l87.3 12.2c4.5 0.7 5 3 0.9 5.3l-27.2 15.1c-4.1 2.2-11.1 3.5-15.7 2.9l-87.2-12.2c-4.6-0.7-5-3-1-5.3z"></path></g><g id="&lt;Group&gt;"><path id="&lt;Path&gt;" class="s10" d="m1128.3 1094c-4.6-0.7-5-3-1-5.3l27.3-15c4-2.3 11.1-3.6 15.6-2.9l87.3 12.2c4.6 0.6 5 3 1 5.2l-27.3 15.1c-4 2.2-11.1 3.5-15.6 2.9z"></path></g><g id="&lt;Group&gt;"><path id="&lt;Path&gt;" class="s10" d="m983.9 1073.8c-4.6-0.6-5-3-1-5.2l27.3-15.1c4-2.3 11.1-3.6 15.6-2.9l87.3 12.2c4.6 0.6 5 3 1 5.2l-27.3 15.1c-4 2.2-11 3.5-15.6 2.9z"></path></g><g id="&lt;Group&gt;"><path id="&lt;Path&gt;" class="s10" d="m839.5 1053.6c-4.5-0.6-5-3-0.9-5.2l27.2-15.1c4.1-2.2 11.1-3.5 15.7-2.9l87.3 12.2c4.5 0.6 5 3 0.9 5.2l-27.2 15.1c-4.1 2.2-11.1 3.5-15.7 2.9z"></path></g><g id="&lt;Group&gt;"><path id="&lt;Path&gt;" class="s10" d="m695.2 1033.4c-4.6-0.6-5-3-1-5.2l27.3-15.1c4-2.2 11-3.5 15.6-2.9l87.3 12.2c4.6 0.6 5 3 1 5.2l-27.3 15.1c-4 2.3-11.1 3.6-15.6 2.9z"></path></g><g id="&lt;Group&gt;"><path id="&lt;Path&gt;" class="s10" d="m550.8 1013.2c-4.5-0.6-5-3-0.9-5.2l27.2-15.1c4-2.2 11.1-3.5 15.7-2.9l87.2 12.2c4.6 0.7 5 3 1 5.2l-27.3 15.1c-4 2.3-11 3.6-15.6 2.9z"></path></g><g id="&lt;Group&gt;"><path id="&lt;Path&gt;" class="s10" d="m1236.4 1128.4c4.1-2.2 11.1-3.5 15.7-2.9l87.3 12.2c4.5 0.7 5 3 0.9 5.3l-27.2 15.1c-4.1 2.2-11.1 3.5-15.7 2.9l-87.3-12.2c-4.5-0.7-5-3-0.9-5.3z"></path></g><g id="&lt;Group&gt;"><path id="&lt;Path&gt;" class="s10" d="m1195 1117.6c4.6 0.6 5 2.9 1 5.2l-27.3 15.1c-4 2.2-11.1 3.5-15.6 2.9l-87.3-12.2c-4.6-0.7-5-3-1-5.2l27.3-15.1c4-2.3 11-3.6 15.6-2.9z"></path></g><g id="&lt;Group&gt;"><path id="&lt;Path&gt;" class="s10" d="m1050.6 1097.4c4.6 0.6 5 3 1 5.2l-27.3 15.1c-4 2.2-11 3.5-15.6 2.9l-87.3-12.2c-4.6-0.6-5-3-1-5.2l27.3-15.1c4-2.3 11.1-3.6 15.6-2.9z"></path></g><g id="&lt;Group&gt;"><path id="&lt;Path&gt;" class="s10" d="m906.3 1077.2c4.5 0.6 5 3 0.9 5.2l-27.3 15.1c-4 2.2-11 3.5-15.6 2.9l-87.3-12.2c-4.5-0.6-5-3-0.9-5.2l27.2-15.1c4.1-2.2 11.1-3.5 15.7-2.9z"></path></g><g id="&lt;Group&gt;"><path id="&lt;Path&gt;" class="s10" d="m761.9 1057c4.6 0.7 5 3 1 5.2l-27.3 15.1c-4.1 2.3-11.1 3.6-15.6 2.9l-87.3-12.2c-4.6-0.6-5-3-1-5.2l27.3-15.1c4-2.2 11-3.5 15.6-2.9z"></path></g><g id="&lt;Group&gt;"><path id="&lt;Path&gt;" class="s10" d="m591.2 1057.1c-4 2.3-11.1 3.6-15.6 2.9l-87.3-12.2c-4.6-0.6-5-3-1-5.2l27.3-15.1c4-2.2 11.1-3.5 15.6-2.9l87.3 12.2c4.6 0.7 5 3 1 5.2z"></path></g><g id="&lt;Group&gt;"><path id="&lt;Path&gt;" class="s10" d="m1173.9 1163c4.1-2.2 11.1-3.5 15.7-2.9l87.3 12.2c4.5 0.7 4.9 3 0.9 5.3l-27.3 15.1c-4 2.2-11 3.5-15.6 2.9l-87.3-12.2c-4.5-0.7-5-3-0.9-5.3z"></path></g><g id="&lt;Group&gt;"><path id="&lt;Path&gt;" class="s10" d="m1003.3 1163.2c-4.6-0.7-5-3-1-5.2l27.3-15.1c4-2.3 11-3.6 15.6-3l87.3 12.3c4.5 0.6 5 3 1 5.2l-27.3 15.1c-4.1 2.2-11.1 3.5-15.7 2.9z"></path></g><g id="&lt;Group&gt;"><path id="&lt;Path&gt;" class="s10" d="m988.1 1132c4.6 0.6 5 3 1 5.2l-27.3 15.1c-4 2.2-11.1 3.5-15.6 2.9l-87.3-12.2c-4.6-0.7-5-3-1-5.2l27.3-15.1c4-2.3 11.1-3.6 15.6-2.9z"></path></g><g id="&lt;Group&gt;"><path id="&lt;Path&gt;" class="s10" d="m714.5 1122.8c-4.5-0.6-5-3-0.9-5.2l27.2-15.1c4.1-2.2 11.1-3.5 15.7-2.9l87.2 12.2c4.6 0.6 5 3 1 5.2l-27.2 15.1c-4.1 2.3-11.1 3.6-15.7 2.9z"></path></g><g id="&lt;Group&gt;"><path id="&lt;Path&gt;" class="s10" d="m570.1 1102.6c-4.5-0.6-4.9-3-0.9-5.2l27.3-15.1c4-2.2 11-3.5 15.6-2.9l87.3 12.2c4.5 0.7 5 3 0.9 5.2l-27.2 15.1c-4.1 2.3-11.1 3.6-15.7 2.9z"></path></g><g id="&lt;Group&gt;"><path id="&lt;Path&gt;" class="s10" d="m528.7 1091.7c-4 2.3-11.1 3.6-15.6 2.9l-87.3-12.2c-4.6-0.6-5-2.9-1-5.2l27.3-15.1c4-2.2 11.1-3.5 15.6-2.9l87.3 12.2c4.6 0.7 5 3 1 5.2z"></path></g><g id="&lt;Group&gt;"><path id="&lt;Path&gt;" class="s10" d="m1111.4 1197.7c4.1-2.3 11.1-3.6 15.7-3l87.2 12.3c4.6 0.6 5 2.9 1 5.2l-27.3 15.1c-4 2.2-11 3.5-15.6 2.9l-87.3-12.2c-4.5-0.7-5-3-1-5.3z"></path></g><g id="&lt;Group&gt;"><path id="&lt;Path&gt;" class="s10" d="m940.8 1197.8c-4.6-0.7-5-3-1-5.2l27.3-15.1c4-2.3 11-3.6 15.6-2.9l87.3 12.2c4.5 0.6 5 3 0.9 5.2l-27.2 15.1c-4.1 2.2-11.1 3.5-15.7 2.9z"></path></g><g id="&lt;Group&gt;"><path id="&lt;Path&gt;" class="s10" d="m796.4 1177.6c-4.6-0.6-5-3-1-5.2l27.3-15.1c4-2.3 11.1-3.6 15.6-2.9l87.3 12.2c4.6 0.6 5 3 1 5.2l-27.3 15.1c-4 2.2-11.1 3.5-15.6 2.9z"></path></g><g id="&lt;Group&gt;"><path id="&lt;Path&gt;" class="s10" d="m652 1157.4c-4.6-0.6-5-3-1-5.2l27.3-15.1c4.1-2.2 11.1-3.5 15.6-2.9l87.3 12.2c4.6 0.6 5 3 1 5.2l-27.3 15.1c-4 2.3-11 3.6-15.6 2.9z"></path></g><g id="&lt;Group&gt;"><path id="&lt;Path&gt;" class="s10" d="m507.6 1137.2c-4.5-0.6-5-3-0.9-5.2l27.2-15.1c4.1-2.2 11.1-3.5 15.7-2.9l87.3 12.2c4.5 0.7 5 3 0.9 5.2l-27.2 15.1c-4.1 2.3-11.1 3.6-15.7 2.9z"></path></g><g id="&lt;Group&gt;"><path id="&lt;Path&gt;" class="s10" d="m466.2 1126.3c-4 2.3-11.1 3.6-15.6 2.9l-87.3-12.2c-4.6-0.6-5-2.9-1-5.2l27.3-15.1c4-2.2 11.1-3.5 15.6-2.9l87.3 12.2c4.6 0.7 5 3 1 5.3z"></path></g><g id="&lt;Group&gt;"><path id="&lt;Path&gt;" class="s10" d="m1151.8 1241.5c4.6 0.7 5 3 1 5.3l-27.3 15.1c-4 2.2-11 3.5-15.6 2.9l-87.3-12.2c-4.5-0.7-5-3-0.9-5.3l27.2-15.1c4.1-2.2 11.1-3.5 15.7-2.8z"></path></g><g id="&lt;Group&gt;"><path id="&lt;Path&gt;" class="s10" d="m1007.5 1221.4c4.5 0.6 5 3 0.9 5.2l-27.2 15.1c-4.1 2.2-11.1 3.5-15.7 2.9l-87.2-12.2c-4.6-0.7-5-3-1-5.2l27.2-15.1c4.1-2.3 11.1-3.6 15.7-2.9z"></path></g><g id="&lt;Group&gt;"><path id="&lt;Path&gt;" class="s10" d="m863.1 1201.2c4.6 0.6 5 3 1 5.2l-27.3 15.1c-4 2.2-11.1 3.5-15.6 2.9l-87.3-12.2c-4.6-0.7-5-3-1-5.2l27.3-15.1c4-2.2 11-3.6 15.6-2.9z"></path></g><g id="&lt;Group&gt;"><path id="&lt;Path&gt;" class="s10" d="m718.7 1181c4.6 0.6 5 3 1 5.2l-27.3 15.1c-4 2.3-11 3.6-15.6 2.9l-87.3-12.2c-4.6-0.6-5-3-1-5.2l27.3-15.1c4-2.2 11.1-3.5 15.6-2.9z"></path></g><g id="&lt;Group&gt;"><path id="&lt;Path&gt;" class="s10" d="m574.4 1160.8c4.5 0.7 5 3 0.9 5.2l-27.2 15.1c-4.1 2.3-11.1 3.6-15.7 2.9l-87.3-12.2c-4.5-0.6-5-3-0.9-5.2l27.2-15.1c4.1-2.2 11.1-3.5 15.7-2.9z"></path></g><g id="&lt;Group&gt;"><path id="&lt;Path&gt;" class="s10" d="m327.1 1131.3c4-2.2 11-3.5 15.6-2.9l87.3 12.2c4.6 0.7 5 3 1 5.2l-27.3 15.2c-4 2.2-11.1 3.5-15.6 2.8l-87.3-12.2c-4.6-0.6-5-2.9-1-5.2z"></path></g></g></g><g id="&lt;Group&gt;"><g id="&lt;Group&gt;"><g id="&lt;Group&gt;"><path id="&lt;Path&gt;" class="s7" d="m812.4 521.1c7 0 13.6-2.7 18.5-7.6 5.5-5.5 8.6-13.5 8.6-22.4l-0.6-291.3c0-19.5-14.6-37.5-32.6-40l-328.1-46.1q-2.1-0.3-4.2-0.3c-7 0-13.5 2.7-18.4 7.6-5.6 5.6-8.6 13.5-8.6 22.4l0.5 291.4c0.1 19.5 14.7 37.4 32.6 39.9l328.2 46.1q2.1 0.3 4.1 0.3z"></path><path id="&lt;Compound Path&gt;" fill-rule="evenodd" class="s11" d="m478.8 109.2l328.2 46.1c20.1 2.9 36.4 22.8 36.5 44.5l0.4 262.2 0.1 29.1c0 20-13.7 34.5-31.6 34.5q-2.3 0-4.8-0.3l-328.1-46.1c-20.1-2.8-36.5-22.7-36.5-44.4l-0.6-291.4c0-19.9 13.8-34.5 31.6-34.5q2.4 0 4.8 0.3zm-20 15c-4.7 4.7-7.3 11.6-7.3 19.2l0.6 291.4c0 17 13.1 33.3 28.6 35.4l328.2 46.1q1.8 0.3 3.5 0.3c5.9 0 11.2-2.2 15.3-6.3 4.7-4.7 7.2-11.5 7.2-19.2v-29.1l-0.5-262.2c0-17.1-13.2-33.3-28.7-35.5l-328.2-46.1q-1.7-0.2-3.5-0.2c-5.9 0-11.1 2.1-15.2 6.2z"></path></g><path id="&lt;Path&gt;" class="s12" d="m474.9 108.9q-1.1 0-2.1 0.1-0.5 0-1 0-1 0.1-2 0.2-0.4 0.1-0.9 0.1-1.2 0.2-2.4 0.5-0.2 0.1-0.3 0.1-1.4 0.4-2.7 0.8-0.4 0.2-0.8 0.4-0.9 0.3-1.8 0.7-0.8 0.4-1.6 0.8 10.9-5.9 21.8-11.9 0.6-0.3 1.1-0.5 0.2-0.1 0.4-0.2 1-0.4 1.9-0.8 0.4-0.2 0.8-0.3 1.3-0.5 2.7-0.8 0-0.1 0-0.1 0.2 0 0.3 0 1.2-0.3 2.4-0.5 0.5-0.1 0.9-0.1 1-0.2 2-0.2 0.5-0.1 1-0.1 1 0 2 0 0.5 0 1 0 1.5 0.1 3 0.3l328.2 46.1q1.6 0.2 3.3 0.6 0.5 0.2 1 0.3 1.2 0.3 2.4 0.7 0.5 0.2 0.9 0.3 1.5 0.6 3 1.3 0.1 0 0.1 0 0.4 0.2 0.8 0.5 1.2 0.6 2.4 1.2 0.6 0.4 1.1 0.8c0.5 0.3 1 0.6 1.5 0.9q0.3 0.2 0.5 0.3 0.4 0.3 0.8 0.6 1 0.8 2 1.7 0.4 0.3 0.8 0.6 0.1 0.1 0.3 0.3c0.2 0.2 0.4 0.4 0.6 0.6q1.3 1.2 2.6 2.6c0.2 0.2 0.4 0.3 0.5 0.5 0.2 0.2 0.3 0.4 0.4 0.5q1.4 1.6 2.6 3.3 0.2 0.2 0.3 0.4 0.1 0.1 0.1 0.1 0.2 0.3 0.3 0.5 0.9 1.2 1.6 2.5 0.3 0.5 0.5 0.9 0.3 0.4 0.5 0.8c0.2 0.5 0.4 0.9 0.7 1.4q0.3 0.6 0.6 1.2 0.6 1.3 1.1 2.6 0.1 0.4 0.3 0.8 0 0.1 0 0.1c0.3 0.6 0.4 1.3 0.6 1.9 0.2 0.6 0.4 1.2 0.6 1.8 0.2 0.7 0.4 1.4 0.5 2.1 0.1 0.6 0.3 1.2 0.4 1.7 0.2 0.9 0.3 1.7 0.4 2.5 0 0.5 0.1 1 0.2 1.5q0.1 2 0.1 4l0.6 291.3c0 14-6.7 25.4-16.9 30.9l-8.3 4.5q-0.2 0.1-0.4 0.2-6.6 3.6-13.1 7.2c10.2-5.6 16.9-16.9 16.9-30.9l-0.5-291.3q0-2.1-0.2-4c-0.1-0.5-0.2-0.9-0.2-1.3-0.1-0.9-0.2-1.8-0.4-2.7-0.1-0.5-0.2-1-0.3-1.4-0.2-0.9-0.4-1.7-0.6-2.5-0.1-0.5-0.3-0.9-0.5-1.4-0.2-0.8-0.4-1.6-0.7-2.3q-0.1-0.4-0.3-0.7-0.5-1.4-1.1-2.7-0.3-0.6-0.6-1.2-0.6-1.1-1.2-2.2-0.2-0.5-0.5-0.9-0.7-1.3-1.6-2.5-0.1-0.3-0.3-0.5-0.2-0.3-0.4-0.6-1.2-1.7-2.6-3.2-0.4-0.5-0.9-1.1-1.2-1.3-2.6-2.6c-0.3-0.3-0.6-0.6-0.9-0.9q-0.4-0.3-0.7-0.6-1-0.8-2.1-1.6-0.4-0.3-0.8-0.6-1-0.7-2-1.3-0.5-0.4-1.1-0.7-1.2-0.7-2.5-1.3-0.3-0.2-0.7-0.4-1.5-0.7-3.1-1.3-0.4-0.2-0.9-0.3-1.2-0.4-2.5-0.8-0.4-0.1-0.9-0.2-1.6-0.4-3.3-0.7l-328.2-46.1q-1.5-0.2-3-0.2-0.5-0.1-0.9-0.1z"></path></g><g id="&lt;Group&gt;"><g id="&lt;Group&gt;"><g id="&lt;Group&gt;"><path id="&lt;Path&gt;" class="s13" d="m500.2 221.2c-5.1 3.4-8.3 6.6-8.4 9.4-0.2 1.9 31.8 73.9 43.1 77q0.2 0 0.4 0c1.3 0.2 3.5-0.3 6.2-1.3q1.2-0.4 2.5-1c-14.9-19.9-37.3-68.3-43.8-84.1z"></path></g><path id="&lt;Path&gt;" class="s14" d="m584.2 191.6q-0.4 0.1-0.8 0.1-0.9 0.1-1.8 0.3-0.3 0-0.6 0.1-1.2 0.2-2.5 0.4-0.4 0.1-0.8 0.2-1 0.2-2 0.4-0.5 0.1-0.9 0.2-1 0.2-2.1 0.4-0.4 0.1-0.9 0.2-1.4 0.3-2.9 0.7-0.2 0.1-0.4 0.1-1.4 0.3-2.7 0.7-0.6 0.1-1.1 0.3-1 0.2-2 0.5-0.6 0.2-1.2 0.3-1 0.3-2.1 0.6-0.5 0.2-1 0.3-1.4 0.4-2.9 0.9-0.2 0-0.3 0-1.6 0.5-3.2 1-0.5 0.2-1.1 0.3-1.1 0.4-2.2 0.8-0.6 0.2-1.2 0.4-1.1 0.3-2.1 0.6-0.7 0.2-1.3 0.5-1.1 0.3-2.2 0.7-0.5 0.2-1.1 0.4-1.6 0.5-3.2 1.1-0.4 0.2-0.8 0.3-1.2 0.4-2.4 0.9-0.6 0.2-1.2 0.4-1.1 0.4-2.1 0.8-0.6 0.2-1.2 0.5-1 0.4-2 0.8-0.6 0.2-1.2 0.4-1.1 0.5-2.3 0.9-0.4 0.2-0.8 0.4-1.5 0.6-2.9 1.2-0.5 0.2-1 0.5-1 0.4-2 0.8-0.5 0.3-1.1 0.5-0.9 0.4-1.7 0.8-0.6 0.3-1.1 0.5-0.9 0.5-1.8 0.9-0.5 0.2-0.9 0.4-0.8 0.4-1.6 0.8-0.4 0.2-0.8 0.4-1.2 0.6-2.3 1.2 0 0 0 0 0 0 0 0l8.3-4.5q1.1-0.6 2.3-1.2 0.4-0.2 0.9-0.4 0.7-0.4 1.5-0.8 0.1 0 0.2-0.1 0.3-0.2 0.6-0.3 1-0.5 1.9-0.9 0.5-0.2 1-0.5 0.9-0.4 1.9-0.8 0.5-0.3 1-0.5 1-0.4 2.1-0.9 0.4-0.2 0.8-0.4 1.5-0.6 3-1.2 0.4-0.2 0.8-0.3 1.1-0.5 2.3-1 0.6-0.2 1.2-0.4 1-0.4 2-0.8 0.6-0.3 1.2-0.5 1-0.4 2.1-0.8 0.6-0.2 1.2-0.4 1.2-0.5 2.4-0.9 0.4-0.2 0.8-0.3 1.6-0.6 3.2-1.1 0.6-0.2 1.2-0.4 1-0.4 2.1-0.7 0.7-0.3 1.3-0.5 1-0.3 2-0.6 0.7-0.3 1.4-0.5 1-0.3 2-0.6 0.6-0.2 1.2-0.4 1.6-0.5 3.2-1 0.2 0 0.5-0.1 1.3-0.4 2.7-0.8 0.5-0.2 1.1-0.3 1-0.3 2-0.6 0.6-0.1 1.2-0.3 1-0.3 2-0.5 0.3-0.1 0.7-0.2 0.2-0.1 0.4-0.1 1.4-0.4 2.7-0.7 0.2-0.1 0.4-0.1 1.5-0.4 2.9-0.7 0.5-0.1 0.9-0.2 1.1-0.2 2.1-0.4 0.4-0.1 0.9-0.2 1-0.3 2-0.4 0.4-0.1 0.8-0.2 1.3-0.2 2.5-0.4 0.3-0.1 0.6-0.1 0.9-0.2 1.8-0.3 0.4-0.1 0.8-0.1 0.8-0.1 1.5-0.2 0.4 0 0.7 0 1-0.1 2-0.2l-8.3 4.5q-1 0.1-2 0.2-0.3 0-0.7 0-0.7 0.1-1.5 0.2z"></path><path id="&lt;Path&gt;" class="s13" d="m596.7 186.7q0.1 0 0.3 0c2.3-0.1 3.2 0 4.4 0.2l-8.2 4.5c-1.1-0.2-2.9-0.3-4.5-0.2q-0.2 0-0.3 0z"></path><path id="&lt;Path&gt;" class="s15" d="m597.7 205.4q-0.9-2-1.7-4.1 0-0.2-0.1-0.3-0.2-0.4-0.3-0.8-0.2-0.6-0.4-1.1-0.2-0.8-0.5-1.5-0.1-0.6-0.3-1.1-0.2-0.8-0.4-1.7-0.2-0.4-0.3-0.9-0.3-1.2-0.5-2.5l8.2-4.5q0.3 1.3 0.6 2.5 0.1 0.5 0.3 0.9 0.2 0.9 0.4 1.7 0.2 0.5 0.3 1 0.3 0.8 0.5 1.6 0.2 0.5 0.4 1.1 0.2 0.5 0.4 1.1 0.8 2.1 1.7 4.1 0.1 0.3 0.3 0.6 0.9 2.1 2 4.1 0.9 1.6 1.8 3.2 0.3 0.4 0.6 0.9 0.8 1.3 1.6 2.5 0.2 0.3 0.4 0.6 1 1.3 1.9 2.6 0.2 0.2 0.4 0.4 0.8 1 1.7 2 0.4 0.4 0.8 0.9 0.5 0.6 1.1 1.2 0.5 0.5 0.9 0.9 0.6 0.6 1.2 1.2 0.4 0.3 0.8 0.7 1.3 1.1 2.6 2.2 0.8 0.5 1.6 1.1 1 0.6 2 1.2 0.1 0.1 0.3 0.2 1.1 0.7 2.3 1.2 0.4 0.2 0.8 0.4 0.7 0.3 1.5 0.6 0.5 0.2 0.9 0.4 0.7 0.2 1.5 0.5 0.4 0.1 0.9 0.2 0.8 0.3 1.6 0.4 0.3 0.1 0.7 0.2 1.2 0.3 2.4 0.4 1.6 0.3 3.2 0.3 0.5 0 1 0.1 1.1 0 2.3-0.1 0.5 0 1 0 1.4-0.1 2.9-0.3 0.1-0.1 0.2-0.1 1.6-0.2 3.1-0.6 0.4-0.1 0.9-0.2 1.1-0.4 2.2-0.8 0.5-0.1 0.9-0.3 1.5-0.5 2.9-1.2 0.7-0.3 1.4-0.7 0 0 0 0 0 0 0 0l-8.3 4.5q-0.6 0.3-1.2 0.6-0.1 0.1-0.2 0.1-1.4 0.7-2.9 1.3-0.4 0.1-0.9 0.3-1.1 0.4-2.2 0.7-0.3 0.1-0.6 0.1-0.2 0.1-0.3 0.1-1.5 0.4-3.1 0.6-0.1 0.1-0.2 0.1-1.4 0.2-2.9 0.3-0.5 0-1 0-1.2 0.1-2.3 0.1-0.5 0-1-0.1-1.6 0-3.2-0.2-1.2-0.2-2.4-0.5-0.4-0.1-0.7-0.1-0.8-0.2-1.6-0.5-0.5-0.1-0.9-0.2-0.8-0.3-1.5-0.5-0.4-0.2-0.9-0.4-0.8-0.3-1.5-0.6-0.3-0.1-0.6-0.3-0.1 0-0.2-0.1-1.2-0.5-2.3-1.2-0.2-0.1-0.3-0.2-1-0.6-2-1.2-0.1-0.1-0.3-0.2-0.6-0.4-1.3-0.9-1.3-1-2.6-2.2-0.1-0.1-0.3-0.2-0.2-0.3-0.5-0.5-0.6-0.6-1.2-1.2-0.4-0.4-0.8-0.8-0.7-0.7-1.3-1.3-0.2-0.3-0.5-0.6-0.1-0.1-0.2-0.3-0.9-0.9-1.7-2-0.2-0.2-0.3-0.4-1-1.3-2-2.6 0-0.1-0.1-0.2-0.1-0.2-0.3-0.4-0.8-1.2-1.6-2.5-0.3-0.4-0.6-0.9-0.9-1.5-1.8-3.2 0 0 0 0-1.1-2-2-4.1-0.2-0.3-0.3-0.6z"></path><g id="&lt;Clip Group&gt;" clip-path="url(#cp1)"><g id="&lt;Group&gt;"><path id="&lt;Path&gt;" class="s16" d="m711.6 467.1l8.3-4.5c13.9-7.6 9.8-83.3 0.4-143.2l-8.3 4.5c9.4 59.9 13.5 135.7-0.4 143.2z"></path></g></g><path id="&lt;Path&gt;" class="s17" d="m762.9 257.5q-0.4-0.3-0.8-0.7-0.3-0.3-0.6-0.6-0.8-0.6-1.5-1.3-0.5-0.4-0.9-0.8-0.7-0.6-1.5-1.2-0.5-0.4-1-0.8-0.7-0.6-1.4-1.2-0.6-0.4-1.2-0.8-0.7-0.6-1.4-1.2-0.6-0.5-1.2-0.9-0.8-0.6-1.6-1.2-0.6-0.4-1.2-0.9-0.8-0.6-1.6-1.2-0.7-0.5-1.3-0.9-0.9-0.6-1.7-1.3-0.7-0.4-1.3-0.9-1-0.6-1.9-1.3-0.6-0.4-1.2-0.8-1.5-1-2.9-2-0.2-0.1-0.3-0.2-1.6-1.1-3.2-2.2-0.6-0.3-1.1-0.7-1.1-0.7-2.2-1.4-0.7-0.5-1.4-0.9-1-0.6-2-1.3-0.7-0.4-1.4-0.9-1-0.6-2-1.2-0.7-0.5-1.4-0.9-1-0.6-2-1.3-0.7-0.4-1.4-0.8-1-0.6-2-1.2-0.7-0.5-1.4-0.9-1.1-0.6-2.1-1.3-0.6-0.3-1.2-0.7-1.7-0.9-3.3-1.9-0.2-0.1-0.3-0.2-1.5-0.8-3-1.7-0.6-0.3-1.2-0.6-1-0.6-2-1.2-0.7-0.3-1.3-0.7-0.9-0.5-1.9-1-0.6-0.3-1.3-0.7-0.9-0.5-1.7-0.9-0.7-0.4-1.4-0.7-0.8-0.5-1.7-0.9-0.6-0.3-1.2-0.6-0.9-0.5-1.7-0.9-0.6-0.3-1.1-0.5-0.9-0.5-1.8-0.9-0.5-0.2-0.9-0.4-0.7-0.4-1.3-0.7-0.6-0.2-1.1-0.5-0.7-0.3-1.4-0.5c-0.3-0.2-0.6-0.3-0.9-0.5q-0.8-0.3-1.5-0.6-0.3-0.1-0.7-0.3-1-0.4-2-0.7l8.3-4.5q1 0.3 2 0.7 0.3 0.2 0.7 0.3 0.7 0.3 1.5 0.6 0.3 0.2 0.7 0.4 0.8 0.3 1.6 0.6 0.4 0.2 0.8 0.4 0.8 0.4 1.6 0.8 0.1 0 0.1 0 0.3 0.1 0.5 0.3 1.1 0.4 2.1 1 0.5 0.2 1 0.4 0.9 0.5 1.9 1 0.5 0.2 1 0.5 1 0.5 1.9 1 0.6 0.3 1.1 0.6 1 0.5 2 1.1 0.6 0.2 1.1 0.5 1.1 0.6 2.2 1.2 0.5 0.3 1 0.6 1.2 0.7 2.5 1.4 0.4 0.2 0.7 0.4 3.3 1.9 6.8 3.9 0.3 0.2 0.6 0.3 1.3 0.9 2.7 1.7 0.5 0.3 1 0.6 1.2 0.7 2.4 1.4 0.6 0.4 1.2 0.7 1.1 0.7 2.2 1.4 0.6 0.4 1.2 0.8 1.1 0.7 2.3 1.4 0.5 0.4 1.1 0.7 1.2 0.8 2.4 1.5 0.5 0.4 1 0.7 1.3 0.9 2.6 1.7 0.4 0.3 0.7 0.5 3.4 2.2 6.6 4.4 0 0.1 0.1 0.1 0.3 0.2 0.7 0.5 1.1 0.8 2.2 1.6 0.6 0.3 1.1 0.7 1 0.7 1.9 1.4 0.6 0.4 1.2 0.8 0.8 0.7 1.7 1.3 0.6 0.4 1.2 0.9 0.8 0.6 1.6 1.2 0.6 0.4 1.1 0.9 0.8 0.6 1.6 1.2 0.5 0.4 1 0.8 0.8 0.6 1.5 1.2 0.5 0.4 1 0.8 0.8 0.7 1.5 1.3 0.4 0.3 0.8 0.7 0.9 0.7 1.7 1.5 0.2 0.1 0.4 0.3 0.1 0 0.1 0.1 0.5 0.4 1 0.9 0.4 0.4 0.9 0.8 0 0 0 0.1 0.9 0.7 1.6 1.5l-8.3 4.5q-0.8-0.8-1.6-1.6-0.5-0.5-1.1-1z"></path><g id="&lt;Clip Group&gt;" clip-path="url(#cp2)"><g id="&lt;Group&gt;"><path id="&lt;Path&gt;" class="s15" d="m731.7 334.2l8.3-4.6c12.8-6.9 40.6-62.3 40.4-64.1l-8.2 4.5c0.1 1.9-27.7 57.2-40.5 64.2z"></path></g></g><g id="&lt;Group&gt;"><path id="&lt;Path&gt;" class="s13" d="m763.7 258.2c-6.5 14-28.6 56.2-43.5 71.9 3.9 2.8 7 4.5 8.7 4.7q0.2 0.1 0.4 0.1c11.3 0.1 43-62.9 42.9-64.9-0.1-2.4-2.4-5.7-6.3-9.6-0.2-0.2-0.2-0.2-0.3-0.3q-0.9-0.9-1.9-1.9z"></path></g><g id="&lt;Group&gt;"><path id="&lt;Path&gt;" class="s18" d="m544 305.3q-1.3 0.6-2.5 1c3.2-1.1 7.2-3 11.7-5.4-7.7 55.7-13.4 130-5.3 138 7.3 7.4 48.8 14.9 88.1 20.5 37.6 5.2 73 8.6 74.6 8.1 15.1-4.1 11.1-82.2 1.4-143.6 3 2.4 5.8 4.5 8.2 6.2 14.9-15.7 37-57.9 43.5-71.9q1 1 1.9 1.9c-17.9-18-68-48.5-88.7-56.1 0.1 3.9-0.4 7.8-1.5 11.6-3.7 12-13.1 21.2-24.1 24.2-5.9 1.7-12.2 2.2-18.4 1.3-6.2-0.9-12.3-3-17.9-6.7-13.4-8.7-22.7-27.5-26.6-43.2-18.9 1-68.3 16.9-88.2 30 6.5 15.8 28.9 64.2 43.8 84.1z"></path></g><g id="&lt;Group&gt;"><path id="&lt;Path&gt;" class="s13" d="m592.8 191.3q-1.7-0.2-4.1-0.1-0.2 0-0.3 0c3.9 15.7 13.2 34.5 26.6 43.2 5.6 3.7 11.7 5.8 17.9 6.7 6.2 0.9 12.5 0.4 18.4-1.3 11-3 20.4-12.2 24.1-24.2 1.1-3.8 1.6-7.7 1.5-11.6q-0.3-0.2-0.7-0.3-2.7-0.9-4.6-1.3c0 2.7-0.3 5.4-0.9 8-2.4 10.3-9 18.4-17.8 22.6-6.2 3-13.4 4.3-20.6 3.3-5.7-0.9-11.4-3.1-16.5-6.9-11-8.4-19.7-23.5-22.6-38q-0.2-0.1-0.4-0.1z"></path></g><g id="&lt;Clip Group&gt;" clip-path="url(#cp3)"><g id="&lt;Group&gt;"><path id="&lt;Path&gt;" class="s13" d="m676.9 204l8.3-4.5q-0.3-0.2-0.7-0.3-2.7-0.9-4.6-1.3l-8.3 4.5q1.9 0.4 4.6 1.3 0.4 0.1 0.7 0.3z"></path></g></g><path id="&lt;Path&gt;" class="s13" d="m772 253.7q1 1 1.9 1.9c0.1 0 0.1 0.1 0.3 0.3q0.9 1 1.8 1.9 0.1 0.1 0.2 0.2 0.1 0.2 0.3 0.3 0.3 0.4 0.6 0.8 0.3 0.3 0.5 0.6 0.3 0.4 0.5 0.7 0.2 0.2 0.3 0.4 0.1 0.1 0.1 0.2 0.6 0.8 1 1.5 0 0 0 0 0 0.1 0.1 0.2 0.2 0.5 0.4 1 0.1 0.1 0.1 0.1 0.1 0.3 0.1 0.5 0.1 0.1 0.1 0.3 0.1 0.5 0.1 0.9l-8.2 4.5q-0.1-0.4-0.2-0.9 0-0.1-0.1-0.3-0.1-0.3-0.2-0.6-0.2-0.5-0.4-1-0.1-0.1-0.1-0.2-0.4-0.7-1-1.5-0.2-0.3-0.3-0.5-0.3-0.4-0.6-0.8-0.2-0.3-0.5-0.6-0.3-0.4-0.6-0.8-0.3-0.2-0.5-0.5-0.8-0.9-1.8-1.9c-0.2-0.2-0.2-0.2-0.3-0.3q-0.9-0.9-1.9-1.9z"></path></g></g></g><g id="&lt;Group&gt;"><g id="&lt;Group&gt;"><g id="&lt;Group&gt;"><g id="&lt;Group&gt;"><path id="&lt;Compound Path&gt;" fill-rule="evenodd" class="s19" d="m1416.8 1126.4l-28.9 15.7c-2.1-2.9-5.3-5-8.8-5.5-6.4-0.9-11.6 4-11.6 11 0 1.8 0.3 3.5 0.9 5.1l-16.6 9.1-121.3-17.1 5.6-43.7zm-130.6 22.4c6.5 0.9 11.7-4 11.7-11 0-7-5.3-13.3-11.7-14.3-6.5-0.9-11.7 4.1-11.7 11 0 7 5.2 13.4 11.7 14.3z"></path><g id="&lt;Group&gt;"><path id="&lt;Path&gt;" class="s20" d="m1236.1 1101l-5.6 43.7-18.8-2.6-0.3-17z"></path><path id="&lt;Path&gt;" class="s21" d="m1211.4 1125.1l0.3 17-40.6-5.7z"></path></g></g><g id="&lt;Group&gt;"><path id="&lt;Path&gt;" class="s21" d="m1416.8 1126.4l45.2 292.5-44.3-8.9-53.1-265.3z"></path><path id="&lt;Path&gt;" class="s22" d="m1364.6 1144.7l53.1 265.3-20.7 44.2-45.2-292.4z"></path></g><g id="&lt;Group&gt;"><path id="&lt;Compound Path&gt;" fill-rule="evenodd" class="s23" d="m1351.8 1161.8l45.2 292.4-266.2-37.4 40.3-280.4zm-130.6 22.4c6.4 0.9 11.7-4 11.6-11 0-7-5.2-13.4-11.7-14.3-6.4-0.9-11.7 4-11.6 11 0 7 5.2 13.4 11.7 14.3zm92.9 13c6.5 1 11.7-4 11.7-10.9 0-7-5.2-13.4-11.7-14.3-6.4-0.9-11.7 4-11.7 11 0 7 5.3 13.3 11.7 14.2z"></path></g></g></g><g id="&lt;Group&gt;"><g id="&lt;Group&gt;"><path id="&lt;Path&gt;" class="s7" d="m1272.9 1332.3c11.4 0 22-3.9 30.3-11.2 10.4-9 16.1-22.2 16.1-37l-0.1-91.3c0-2.8-2.4-5.1-5.2-5.1-2.9 0-5.2 2.3-5.2 5.1l0.1 91.3c0.1 11.8-4.4 22.2-12.5 29.2-7.8 6.9-18.3 9.8-29.4 8.2-24-3.4-43.6-26.2-43.7-50.9l-0.1-91.2c0-2.9-2.3-5.2-5.1-5.2-2.9 0-5.2 2.3-5.2 5.2l0.1 91.2c0.1 29.7 23.6 57.1 52.5 61.1q3.7 0.6 7.4 0.6z"></path></g></g><path id="&lt;Path&gt;" class="s24" d="m1462 1418.9l-44.3-8.9-20.7 44.2z"></path></g></g><path id="&lt;Path&gt;" class="s25" d="m851.3 1161.8c-71.2 0-128.8-21.4-128.8-47.9 0-26.5 57.6-47.9 128.8-47.9 71.3 0 128.9 21.4 128.9 47.9 0 26.5-57.6 47.9-128.9 47.9z"></path><g id="&lt;Group&gt;"><g id="&lt;Group&gt;"><g id="&lt;Group&gt;"><path id="&lt;Path&gt;" class="s26" d="m872.7 700.4c-10.9 24.7-10.1 43.5 17.5 102.5 5.8 12.4 33 10 25.3-11.4-14.7-41-20.8-55.6-18.1-76.2 2.8-20.6-16.4-33.9-24.7-14.9z"></path></g><g id="&lt;Group&gt;"><path id="&lt;Path&gt;" class="s27" d="m897.8 715.1c-1.4 10-0.7 18.6 2.1 29.4-8.3 6.5-18.7 10.5-29.3 11.5-7.6-25.3-5.5-39.4 1.8-56.2 8.6-19.5 28.2-5.8 25.4 15.3z"></path></g><g id="&lt;Group&gt;"><g id="&lt;Group&gt;"><path id="&lt;Path&gt;" class="s28" d="m898.8 739.9c1.1 1.2 1.3 2.8 1.1 4.6-8.3 6.5-18.7 10.5-29.3 11.5-0.9-1.4-1.2-2.7-1.2-4.3 10.6-1.4 20.9-5.4 29.4-11.8z"></path></g></g></g><g id="&lt;Group&gt;"><path id="&lt;Path&gt;" class="s29" d="m797.6 1069.6c-1.3 4.8-2.3 9.6-2.1 14.6 0.1 4.4 1.3 8.8 1.2 13.2-0.1 9.1-7.4 22.8-16.2 22.8-5.2 0-9.5-2.6-11.5-11.7-2.3-10.5 1-12.5 6.3-20.2 5.6-8 2.6-15 4.1-24.6z"></path></g><g id="&lt;Group&gt;"><path id="&lt;Path&gt;" class="s29" d="m876.5 1081.9c-1.5 1-1.8-0.7-2.2 0.9-0.5 2-1.4 7-1.7 9-0.6 3.5-1.2 7.3-1.2 10.7 2 1.1 6 2.3 9.7 3.1 1.1-1.1 1-2.2 1.2-3.5 4.3 4.5 8.9 8 14.5 10.7 5.9 2.7 12.5 6.8 19 7.4 8.4 0.7 13.4-8 10.9-15.6-2.4-7.7-10.2-6.3-15.9-9.8-3.7-2.3-6.2-6.1-8.7-9.6-2.6-3.5-5.4-6.9-8.4-10.1z"></path></g><g id="&lt;Group&gt;"><path id="&lt;Path&gt;" class="s30" d="m871.6 1099c2 1.1 5.9 2.2 9.5 3 1.1-1.1 1-2.3 1.2-3.6 4.3 4.6 8.9 8.1 14.5 10.8 2.6 1.2 5.1 2.5 7.6 3.7 2.6 1.2 5.2 2.4 7.9 3.1 1.6 0.3 3.2 0.6 4.8 0.6 1.2 0 2.4 0.1 3.7 0.1q1.9 0 3.8-0.2c-2 2.4-5.1 4-8.8 3.7-6.5-0.6-13.1-4.7-19-7.4-5.6-2.7-10.2-6.2-14.5-10.7-0.2 1.3-0.1 2.4-1.2 3.5-3.7-0.8-7.7-2-9.7-3.1q0-1.7 0.2-3.5z"></path></g><g id="&lt;Group&gt;"><path id="&lt;Path&gt;" class="s31" d="m885.5 821.9c6 8.4 14.8 40 18.4 55.6 8.1 35.7 3.1 61.1 2.9 98-0.3 41.1 4 102-4.7 109.7-2.9 2-25.4-0.4-27.8-2.4-3.6-2.9-12-96.5-18.8-135.2-2.9-13.5-1-26.1-4.8-39.6-3.9-13.6-11.7-26.2-15.5-39.7-3.9-10.6-17.9-51.9 8.1-49.8 10.5 0.9 42.2 3.4 42.2 3.4z"></path></g><g id="&lt;Group&gt;"><path id="&lt;Path&gt;" class="s31" d="m883.6 822.8c-7.8 65.8-32 129.7-52.3 194.5-3.9 14.5-21 58-31.5 66.5-4.7 3.9-18.8-3.1-22.4-10.5-1.5-3.2 2.6-28.9 6.5-41.5 10.6-35.8 12.6-70.6 21.3-107.4 5.8-24.2-4.2-57.9 14.3-95.1 9.5-19.2 30.1-7.4 55.3-7.4z"></path></g><g id="&lt;Group&gt;"><path id="&lt;Path&gt;" class="s32" d="m888.2 826.8c0 0-33.1 12.4-68.7 2.5 0 0-38-92.9-17.2-125.4 4.5-7 20.7-12.2 29.7-15.2 7.8-2.7 23-3.5 31.2-2.9 12.4 1 35.1 0.3 35.1 26.5 0 26.8-4.4 68.4-10.1 114.5z"></path></g><g id="&lt;Group&gt;"><g id="&lt;Group&gt;"><path id="&lt;Path&gt;" class="s26" d="m863.2 648.4v44.3c0 8.6-7.3 10.9-11.5 11-3.2 0.1-19.7-2.4-19.7-11v-44.3z"></path></g><path id="&lt;Path&gt;" class="s26" d="m832 692.7c0 0-1.9 8.5 24.6 17.8 0 0 6.7-4.7 6.5-16.3z"></path></g><g id="&lt;Group&gt;"><path id="&lt;Path&gt;" class="s33" d="m841.5 682.9c-3.4-0.8-6.5-1.9-9.5-3.3v-31.2h31.2v35c-6.4 2.7-15.4 1-21.7-0.5z"></path></g><g id="&lt;Group&gt;"><path id="&lt;Path&gt;" class="s26" d="m793.3 735.9c6.5 2.2 13 3.5 19.6 4.8-3.6 8.5-4.3 17.7-5.6 49-0.9 23.9-26.3 15.1-28 1.4-3.9-29.7-2.2-40.7 2.5-53.6 3.8 2.1 7.1-3 11.5-1.6z"></path></g><g id="&lt;Group&gt;"><path id="&lt;Path&gt;" class="s27" d="m781.8 737.5c3.7-16.8 10.5-26.6 20.9-36.5 15.6-14.8 28.9 7.2 18.1 26.2-3.6 6.2-5.9 12.3-7.6 19.3-11 1.5-22.5-2.2-31.4-9z"></path></g><g id="&lt;Group&gt;"><path id="&lt;Path&gt;" class="s28" d="m814.3 742.4c0 1.4-0.5 3-1.1 4.1-11 1.5-22.5-2.2-31.4-9 0-1.3 0.3-2.6 1-3.9 9.3 6.2 20.5 9.6 31.5 8.8z"></path></g><g id="&lt;Group&gt;"><path id="&lt;Path&gt;" class="s26" d="m868.1 682.9c0 0-16 4.7-28.9-8 0 0-5.5-4.7-8-14.3-2.7-10.4-12.2-36.8 3.3-43.6 20.5-9 40.2-5.9 43 12.4 0.6 3.9 2 8.6 1.2 15.8-0.9 7.1-0.9 8.7-1.1 13-0.1 5.3-0.3 5.7-0.6 7.7-0.2 2.1-3.1 15.2-8.9 17z"></path><path id="&lt;Path&gt;" class="s34" d="m853.3 611.8c26.9-1.7 25.3 23.7 25.3 23.7 0 0-2.2-1.5-5.9 0.4-16.3 8.6-21.6 1.1-26.9 1-5.3-0.1-3 19.5-3 19.5l-5.6-1.9-9.4-6.6c-7.2-23.8-1.3-34.4 25.5-36.1z"></path><path id="&lt;Path&gt;" class="s26" d="m827.8 653.4c1.9 3.9 3 7.4 6.1 6.7 3-0.7 4.6-4.7 3.6-9-1-4.3-4.2-7.1-7.2-6.4-3.1 0.7-5.1 3.3-2.5 8.7z"></path><path id="&lt;Path&gt;" class="s34" d="m829.8 619.1c0-1-1.8-1.3-2.9-0.8 0.6-1.3 1-1.9 2.6-2.4-0.2-1.7 1.6-4.4 3.8-5.3-0.5 1-1.1 2.4-0.8 3.4 0.3 1.5 1.5 2.3 3.7 1.6 0.9-0.3-0.2 3.5-1.5 4.1-1 0.5-3.9 1.1-3.9-0.2z"></path></g><g id="&lt;Group&gt;"><g id="&lt;Group&gt;"><path id="&lt;Path&gt;" class="s35" d="m851.3 656.6c-1 0-1.8-1.3-1.8-2.9 0-1.7 0.8-3 1.8-3 1 0 1.8 1.3 1.8 3 0 1.6-0.8 2.9-1.8 2.9z"></path></g><g id="&lt;Group&gt;"><path id="&lt;Path&gt;" class="s35" d="m871.5 656.6c-1 0-1.9-1.3-1.9-2.9 0-1.7 0.9-3 1.9-3 1 0 1.8 1.3 1.8 3 0 1.6-0.8 2.9-1.8 2.9z"></path></g><g id="&lt;Group&gt;"><path id="&lt;Path&gt;" class="s35" d="m861.8 664.6h3.9c0.3 0 0.6-0.2 0.6-0.5 0-1.8-2-9.1-2-9.4-0.1-0.3-0.4-0.5-0.7-0.4-0.3 0.1-0.4 0.4-0.4 0.7 0.5 1.8 1.7 6.6 2 8.6h-3.4c-0.3 0-0.6 0.2-0.6 0.5 0 0.3 0.3 0.5 0.6 0.5z"></path></g><g id="&lt;Group&gt;"><g id="&lt;Group&gt;"><path id="&lt;Path&gt;" class="s35" d="m867.2 643.9c0-0.6-0.1-1.6 0.3-1.9 0.8-0.6 1.8-0.8 2.8-0.6q1.6 0.3 3.2 1.1 1 0.4 1.9 1.1c0.5 0.3 1.1 0.8 1.2 1.6 0 0.4 0.1 1.1-0.3 1.1-0.3 0.1-0.6-0.2-0.9-0.4q-1.1-0.4-2.1-0.5c-0.8-0.2-1.4-0.2-2.1 0-0.7 0.1-1.3 0.4-1.9 0.7-0.5 0.2-0.9 0.5-1.3 0.1-0.5-0.6-0.7-1.6-0.8-2.3z"></path></g></g><g id="&lt;Group&gt;"><g id="&lt;Group&gt;"><path id="&lt;Path&gt;" class="s35" d="m858.3 644.3c0.1-0.5 0.2-1.5-0.5-1.9-1.1-0.6-2.5-0.9-3.8-0.8q-2.2 0.3-4.4 0.9c-0.8 0.3-1.7 0.6-2.5 1-0.6 0.3-1.4 0.7-1.5 1.6 0 0.4 0 1.1 0.5 1.1 0.4 0.1 0.8-0.2 1.2-0.3q1.4-0.4 2.9-0.5c1 0 1.9 0 2.9 0.2 0.9 0.2 1.7 0.5 2.6 0.9 0.6 0.2 1.2 0.5 1.8 0.1 0.6-0.5 0.8-1.5 0.8-2.3z"></path></g></g><g id="&lt;Group&gt;"><path id="&lt;Path&gt;" class="s35" d="m875.8 653.9q0.2 0 0.3-0.1c0.3-0.1 0.4-0.4 0.2-0.7-3-4.7-8.2-2.3-8.3-2.3-0.2 0.2-0.3 0.5-0.2 0.8 0.1 0.2 0.4 0.3 0.7 0.2 0.2-0.1 4.4-2.1 6.9 1.9 0.1 0.1 0.3 0.2 0.4 0.2z"></path></g><g id="&lt;Group&gt;"><path id="&lt;Path&gt;" class="s35" d="m846.9 653.9c0.2 0 0.4-0.1 0.5-0.2 2.5-4 6.7-2 6.9-1.9 0.2 0.1 0.6 0 0.7-0.2 0.1-0.3 0-0.6-0.3-0.8 0 0-5.2-2.4-8.2 2.3-0.2 0.3-0.1 0.6 0.1 0.7q0.2 0.1 0.3 0.1z"></path></g><g id="&lt;Group&gt;"><path id="&lt;Path&gt;" class="s35" d="m851.3 665.9c0.2 0.1 0.4 0.3 0.4 0.6-0.1 1.8 1.4 2.7 1.7 2.9 1.2 0.6 2.8 0.6 3.7-0.4 0.2-0.2 0.5-0.2 0.8 0 0.2 0.2 0.2 0.5 0 0.7-1.3 1.5-3.5 1.4-5 0.6-1.1-0.6-2.4-2-2.3-3.9 0-0.3 0.3-0.5 0.6-0.5q0.1 0 0.1 0z"></path></g></g><g id="&lt;Group&gt;"><g id="&lt;Group&gt;"><path id="&lt;Path&gt;" class="s33" d="m864.6 843.2c0 15-1 30.2-4.7 44.8-0.2 0.9 2.6 0.5 2.8-0.4 3.8-14.7 4.7-30 4.7-45.2 0-0.7-2.8-0.2-2.8 0.8z"></path></g></g><g id="&lt;Group&gt;"><g id="&lt;Group&gt;"><path id="&lt;Path&gt;" class="s33" d="m880.6 836.3c0.4 7 4.6 13.3 8.8 18.6 0.6 0.8 3.3-0.2 2.6-1-4.1-5.3-8.2-11.4-8.6-18.4 0-0.8-2.9-0.2-2.8 0.8z"></path></g></g><path id="&lt;Path&gt;" class="s28" d="m856.6 710.5c0 0-15.3 0.5-12.7 12.9 0 0-20.2-19.4-15.2-32.2 0 0 1.6-3.3 3.3-3.4 0 0 0.7 9.5 11.1 13.3 7.2 2.6 13.5 9.4 13.5 9.4z"></path><path id="&lt;Path&gt;" class="s28" d="m856.6 710.5c0 0 9.1 1.1 8.9 8 0 0 10.9-17.7-2.3-32 0 0 1.2 16.7-6.6 24z"></path><g id="&lt;Group&gt;"><path id="&lt;Path&gt;" class="s26" d="m825 860.3c-3 1.7-8.8 3.9-8.8 3.9-7.5-6-34.1-52.8-37-73.8-0.9-6.4 27-3.4 28 1.4 3.4 17.6 4.1 27.9 23.8 63.5-3.3 2.7-3.2 3.4-6 5z"></path></g><g id="&lt;Group&gt;"><g id="&lt;Group&gt;"><path id="&lt;Path&gt;" class="s33" d="m836.7 841.2c-0.5 5.9-3.7 11.2-7.9 15.2-3.8 3.6-8.7 6.9-14 7.7-0.5 0-1.6 0.1-1.9 0.6-0.3 0.4 0.2 0.4 0.6 0.4 12.1-1.8 24.9-11.8 26-24.6 0-0.3-2.7 0-2.8 0.7z"></path></g></g><g id="&lt;Group&gt;"><path id="&lt;Path&gt;" class="s26" d="m901.4 793.4c15.6-9.6 30.7-20.4 41.4-35.6 3.4-4.8 6.4-9.8 9.5-14.8 1.4-2.2 2.7-4.3 4.2-6.4 1.6-2.4 3.5-4.8 5.8-6.6 1-0.8 2.8-1.9 4.2-1.3 2.4 1.1-0.6 4.1-1.5 5.1-1.8 1.9-3.2 5.6-3.7 8.3-0.3 2 0 1.6 2 2.4 1.4 0.6 2.5 1.6 3.2 3.2 0.3 0.8 0.4 1.7 0.6 2.6 0.5 3.3-1 8.8-4.8 7.3 0 0-4.3 4-4.7 4.5-1.6 2-2.4 4.7-3.6 7-5.2 10.1-14.4 18.5-22.9 25.9q-3.8 3.4-8 6.5c-4 3-8.5 5.7-13 7.8-10.8 5-19.8-9.1-8.7-15.9z"></path></g></g></g></g></g></g></svg> 